<?xml version="1.0" encoding="utf-8"?>
<!-- Generator: Adobe Illustrator 24.0.0, SVG Export Plug-In . SVG Version: 6.00 Build 0)  -->
<svg version="1.1" id="图层_1" xmlns="http://www.w3.org/2000/svg" xmlns:xlink="http://www.w3.org/1999/xlink" x="0px" y="0px"
	 viewBox="0 0 144 38" style="enable-background:new 0 0 144 38;" xml:space="preserve">
<style type="text/css">
	.st0{fill:#FFFFFF;}
	.st1{fill:#FFFDFD;}
	.st2{font-family:'ArialMT';}
	.st3{font-size:9.9925px;}
	.st4{fill:#0066FF;}
</style>
<g>
	<path class="st0" d="M48.3,5.2c0,0-1.5-3-4.8-3.4c-0.4-0.1-1.4-0.1-1.9-0.1L24.4,1.7l-6.2,21.7l15.9,0.1c0,0,6.3-0.3,10.1-4
		C48.1,15.9,50.5,10.9,48.3,5.2z M39.5,13.7c-1.6,2.5-4.4,4-6.6,4.4c-2.2,0.4-4.9,0-4.9,0L31.8,7h4.3c0.3,0,0.6,0,0.9,0.1
		C40.5,7.6,41,11.4,39.5,13.7z"/>
</g>
<path class="st0" d="M51.4,12.2c0,0,0.5-3.3,1.1-3.9c0.5-0.7,0.5-0.9,2.3-1.1c1.8-0.2,7.7-0.4,10.3,0c2.6,0.4,2.5,3.7,1.8,5.9
	c-0.7,2.1-3.1,10-3.1,10h-7.5l2.1-5.6c0,0-1.9-0.3-4.4,0.6c0,0-1.8,0.7,0,1.9c0,0,0.7,0.3,2.2,0.4l-1.6,3.5c0,0-4.6,0.8-6.6-0.9
	c-2-1.7-1.4-4.9,0.2-6.6c1.6-1.7,5.8-2.6,8.8-3c2.9-0.4,3.6-1.3,2.7-1.9C58.7,10.7,53.4,11.6,51.4,12.2z"/>
<path class="st0" d="M95.8,12.2c0,0,0.5-3.3,1.1-3.9c0.5-0.7,0.5-0.9,2.3-1.1c1.8-0.2,7.7-0.4,10.3,0c2.6,0.4,2.5,3.7,1.8,5.9
	c-0.7,2.1-3.1,10-3.1,10h-7.5l2.1-5.6c0,0-1.9-0.3-4.4,0.6c0,0-1.8,0.7,0,1.9c0,0,0.7,0.3,2.2,0.4L99,23.7c0,0-4.6,0.8-6.6-0.9
	c-2-1.7-1.4-4.9,0.2-6.6c1.6-1.7,5.8-2.6,8.8-3c2.9-0.4,3.6-1.3,2.7-1.9C103.2,10.7,97.8,11.6,95.8,12.2z"/>
<path class="st0" d="M69.8,7.8c0,0,0.9,2.2-0.4,8.1c-1.3,5.9-0.5,7.6,1.2,8.1c1.7,0.4,3.8,0.5,5.9,0.2c0,0-1.1-2.7-0.1-8.5
	s0.9-7,0-8C76.5,7.6,72.7,6.9,69.8,7.8z"/>
<path class="st0" d="M83.2,8.5c0,0-2.3,4.3-5.5,7.5c0,0-0.9,0.3-0.9,2.5s0.1,4.7,0.8,5.3C77.6,23.8,86.9,18.3,83.2,8.5z"/>
<rect x="18.2" y="25.2" class="st0" width="115.5" height="0.8"/>
<g>
	<path class="st0" d="M125.4,6.8c-3,0-5.3,0.8-6.6,1.3c-5.3,2.4-9.1,8.6-5.5,13.1c3.6,4.5,17.1,3.1,20.1-5.2
		C136.1,8.6,129.4,6.8,125.4,6.8z M126.1,15.7c-1.5,4.5-6.9,4.3-6.7,0.7c0.2-3.3,2.9-4.8,2.9-4.8C124,10.5,127.5,11.3,126.1,15.7z"
		/>
</g>
<path class="st0" d="M83.8,8.2c0,0,2.8,6.1-1.3,12.8c-4.1,6.6-13,14.5-14.1,14.7h9.8c0,0,16.4-14.2,12.3-26.7
	C90.6,9,89.8,7.8,83.8,8.2z"/>
<g>
	<path class="st0" d="M97.1,30.6c0.3-1,0.4-1.6,0.5-2c0.1-0.3,0.1-0.7,0.2-1c0.3,0.1,0.7,0.1,1.1,0.1c-0.2,0.3-0.3,0.7-0.5,1.2
		c-0.2,0.5-0.3,1.1-0.4,1.6l2.2,0c0.8,0,1.5,0,2.2-0.1l-0.2,0.9c-0.6,0-1.1,0-1.7,0l-2.5,0c0,0.5,0.1,1,0.3,1.5
		c0.2,0.5,0.4,0.9,0.6,1.3c0.2,0.4,0.5,0.8,1,1.2c0.4,0.4,0.9,0.8,1.5,1.1c-0.3,0.2-0.6,0.4-0.9,0.8c-0.4-0.3-0.9-0.6-1.3-1.1
		c-0.4-0.4-0.8-1-1.1-1.7c-0.3-0.7-0.6-1.3-0.7-1.9c-0.4,0.6-0.7,1.1-1.1,1.5c-0.4,0.4-0.7,0.8-1.1,1.1c-0.4,0.3-0.8,0.7-1.4,1
		c-0.6,0.3-1.2,0.7-1.8,1c-0.2-0.3-0.3-0.6-0.6-0.9c0.6-0.2,1.3-0.5,2-0.8c0.7-0.4,1.2-0.8,1.7-1.2c0.5-0.5,0.9-1,1.2-1.5
		c0.3-0.5,0.6-1,0.8-1.5l-2.4,0c-0.7,0-1.2,0-1.6,0l0.2-0.9c0.4,0,0.9,0.1,1.6,0.1L97.1,30.6z"/>
</g>
<g>
	<path class="st0" d="M116.1,29l-0.4,2.4c0.4,0,1,0,1.6,0l-0.1,0.8c-0.2-0.1-0.5-0.1-0.7-0.1l-0.5,3.5c0.2-0.1,0.5-0.4,0.9-0.8
		c0,0.2,0.1,0.5,0.2,0.8c-0.3,0.2-0.6,0.5-0.9,0.7c-0.3,0.2-0.6,0.5-0.9,0.8c-0.1-0.2-0.3-0.4-0.5-0.6c0.3-0.3,0.4-0.6,0.5-0.9
		l0.5-3.4H115c-0.1,0.7-0.2,1.3-0.3,1.8c-0.1,0.5-0.3,1-0.4,1.4c-0.1,0.4-0.3,0.8-0.5,1.1c-0.2,0.3-0.3,0.6-0.5,0.9
		c-0.3-0.2-0.5-0.3-0.8-0.4c0.3-0.3,0.5-0.6,0.7-1c0.2-0.4,0.3-0.8,0.5-1.2c0.1-0.4,0.3-0.9,0.4-1.3c0.1-0.5,0.2-1,0.3-1.5
		c-0.1,0-0.4,0-0.8,0.1l0.1-0.8c0.5,0,1,0,1.4,0l0.4-2.4c0.1-0.7,0.2-1.2,0.2-1.6h0.9C116.3,27.8,116.2,28.4,116.1,29z M114.9,30.5
		c-0.3,0.1-0.6,0.2-0.8,0.3c-0.1-0.9-0.2-1.6-0.3-1.9c0.2-0.1,0.4-0.1,0.7-0.3C114.6,29.3,114.8,30,114.9,30.5z M116.9,30.7
		c-0.3-0.1-0.5-0.1-0.7-0.2c0.2-0.4,0.5-1.1,0.8-2c0.2,0.1,0.4,0.1,0.8,0.2C117.7,28.9,117.4,29.6,116.9,30.7z M118.7,32.3l1.6,0
		c-0.1-0.3-0.3-0.6-0.4-0.8c0.3-0.1,0.4-0.2,0.6-0.4c0.2,0.3,0.3,0.6,0.5,0.8c-0.2,0.1-0.4,0.2-0.6,0.4h1.2c0.4,0,1,0,1.5,0L123,33
		c-0.6,0-1,0-1.5,0h-0.7l-0.1,0.6h0.6c0.4,0,0.8,0,1.3,0l-0.1,0.7c-0.5,0-0.9,0-1.3,0h-0.6l-0.1,0.7h0.6c0.4,0,0.8,0,1.3,0l-0.1,0.7
		c-0.5,0-0.8,0-1.1,0h-0.7l-0.1,0.7h0.9c0.5,0,1,0,1.5,0l-0.1,0.7c-0.5,0-1,0-1.4,0l-3.1,0l-0.1,0.8l-0.7,0c0.1-0.6,0.2-1.1,0.3-1.6
		l0.4-2.4c-0.2,0.3-0.5,0.5-0.6,0.8c-0.2-0.2-0.3-0.3-0.5-0.5c0.4-0.3,0.7-0.7,1-1.1c0.3-0.4,0.6-0.8,0.8-1.3
		c0.2,0.1,0.5,0.2,0.8,0.4C119.1,31.9,118.9,32.1,118.7,32.3z M120.6,27.8c-0.1,0.6-0.2,1-0.2,1.2l-0.2,1.1c0,0.2-0.1,0.6-0.1,1.2
		h-0.7l0.1-0.7c-0.2,0.1-0.4,0.2-0.7,0.4c-0.3,0.1-0.6,0.3-0.9,0.5c-0.1-0.3-0.2-0.6-0.3-0.8c0.2,0,0.5-0.1,0.9-0.3
		c0.4-0.1,0.7-0.3,1.1-0.5l0.2-1.4l-0.7,0c-0.2,0-0.5,0-1,0l0.1-0.7c0.4,0,0.8,0,1,0H120.6z M119.1,29.7c-0.2,0-0.4,0.1-0.6,0.2
		c-0.1-0.4-0.2-0.7-0.2-1c0.2-0.1,0.4-0.1,0.6-0.2L119.1,29.7z M120.1,33.5l0.1-0.6l-1.5,0l-0.1,0.6H120.1z M119.9,34.8l0.1-0.7
		h-1.5l-0.1,0.7H119.9z M119.7,36.1l0.1-0.7h-1.5l-0.1,0.7H119.7z M123.7,27.8c-0.1,0.5-0.2,0.9-0.2,1.1l-0.2,1.3
		c0,0.2-0.1,0.6-0.1,1.2h-0.7l0.1-1c-0.2,0.1-0.5,0.2-0.8,0.3c-0.3,0.1-0.5,0.3-0.8,0.5c-0.1-0.2-0.2-0.5-0.3-0.8
		c0.3-0.1,1-0.3,2-0.7l0.2-1.3h-0.8c-0.4,0-0.7,0-1,0l0.1-0.7c0.3,0,0.6,0,1,0L123.7,27.8z M122,29.7c-0.3,0-0.5,0.1-0.7,0.2
		c0-0.3-0.1-0.6-0.1-0.9c0.2-0.1,0.4-0.1,0.7-0.2C121.9,29,121.9,29.3,122,29.7z"/>
</g>
<g>
	<text transform="matrix(1.0897 0 0 1 133.8164 8.3188)" class="st1 st2 st3">®</text>
</g>
<path class="st0" d="M15.3,18.2c0.1-0.4,0.1-0.8,0.2-1.1c0.2-0.9-0.1-1.7-0.4-2.5c-0.3-0.7-0.5-1.3-0.3-2c0.1-0.4,0.2-0.9,0.4-1.3
	c0.2-0.5,0.3-1,0.4-1.6c0.1-0.9-0.2-1.7-0.6-2.4c-0.3-0.5-0.5-1.1-0.6-1.7C14.2,5,14.1,4.5,14,4c-0.2-0.9-0.7-1.5-1.6-1.9
	c-0.7-0.3-1.5-0.6-2.3-0.8C9.6,1.1,9,1,8.5,1.1C7.2,1.3,6.2,1.9,5.3,2.8C5,3.1,4.7,3.6,4.6,4.1C4.5,4.4,4.4,4.7,4.4,4.9
	c-0.4,1.9-0.8,3.8-1.3,5.7c-0.4,1.6-0.6,3.2-0.7,4.9c0,1.4-0.1,2.8-0.2,4.2c-0.1,0.8-0.2,1.6-0.4,2.4c0,0.3,0,0.7,0,1
	c0,0,0,0.1,0,0.1c0,0.7,0.4,1.1,0.9,1.4c1.5,1,3.2,1.7,5,1.9c1,0.1,1.9,0.1,2.9-0.4c0.4-0.2,0.8-0.3,1.2-0.3c0.7-0.1,1.3-0.2,2-0.3
	c1.2-0.3,1.8-0.9,1.7-2.2c0-0.6-0.1-1.3-0.2-1.9C15.1,20.3,15.1,19.2,15.3,18.2z M6,18.8c-0.1,0.4-0.3,0.8-0.4,1.1
	c0,0.1-0.1,0.1-0.2,0.2C5.3,20,5.3,20,5.2,19.9c0-0.1,0-0.2,0-0.4c0.1-0.4,0.1-0.8,0.2-1.3c0-0.1,0.1-0.2,0.1-0.2
	c0.1-0.1,0.2-0.2,0.3-0.2c0.1,0,0.2,0.1,0.3,0.2C6.1,18.3,6.1,18.6,6,18.8z M6,9.5C5.9,8.8,5.8,8.2,5.8,7.6C5.8,7.2,6,7,6.4,7.1
	c0,0,0.1,0,0.1,0c0.4,0.1,0.9,0.2,1.3,0.1c0.3,0,0.6,0,0.9,0c0-0.3,0-0.6,0-0.8c0-0.3,0.1-0.4,0.3-0.5c0.3-0.1,0.5,0,0.6,0.3
	C9.7,6.5,9.7,6.7,9.7,7c0,0.1,0,0.2,0,0.2c0.6,0,1.1,0,1.7,0c0.1,0,0.2-0.1,0.3-0.1C12.1,7,12.4,7,12.6,7.3c0.1,0.1,0.1,0.2,0.1,0.4
	c0,0.4-0.1,0.9-0.1,1.3c0,0.6-0.3,0.9-0.9,0.7c-0.7-0.2-1.4-0.2-2.1-0.2c0,0.3,0,0.5,0,0.7c0,0.4,0,0.8,0,1.2c0,0.3-0.5,0.6-0.8,0.5
	c-0.2-0.1-0.2-0.3-0.2-0.4c0-0.6,0-1.1,0.1-1.7c0-0.1,0-0.1,0-0.2c-0.7,0-1.3,0-2,0.2c-0.1,0-0.2,0.1-0.3,0.1C6.1,9.8,6,9.7,6,9.5z
	 M10.8,17.9c-0.2,0-0.3,0-0.5,0c0,0,0,0,0-0.1c-0.6,0.1-1.2,0.1-1.8,0.2c-0.1,0-0.3,0-0.3-0.1c0-0.1,0-0.2,0-0.3
	c0.1-0.3,0.4-0.4,0.7-0.4c0.3,0,0.7,0,1,0c0.6,0,1.3,0,1.9,0c0.1,0,0.3,0,0.4,0c0.1,0,0.2,0.1,0.2,0.2c0,0.1-0.1,0.2-0.2,0.2
	C11.8,17.8,11.3,17.8,10.8,17.9z M12.3,18.8c-0.1,0.6-0.1,1.2-0.2,1.8c0,0.3-0.1,0.4-0.4,0.3c-0.1,0-0.2,0-0.2,0
	c-0.5-0.3-1.1-0.2-1.7-0.2c-0.3,0-0.5,0.1-0.8,0.2c-0.4,0.1-0.5,0-0.6-0.4c0-0.5-0.1-0.9-0.2-1.4c0-0.2,0-0.4,0-0.6
	c0.1-0.2,0.2-0.3,0.5-0.3c0.8,0.2,1.6,0.1,2.3,0.1c0.2,0,0.3,0,0.5-0.1C12,18.1,12.4,18.4,12.3,18.8z M7.2,19.6c0,0.8,0,1.6,0,2.4
	c0,0.3-0.4,0.6-0.7,0.5c-0.2,0-0.2-0.2-0.2-0.3c0-0.4,0-0.7,0-1.1c0-1.2,0-2.4,0-3.6c0-0.1,0-0.2,0-0.4c0-0.2,0.1-0.3,0.3-0.4
	c0.1,0,0.3,0,0.4,0c0.1,0,0.2,0.1,0.2,0.2C7.3,17.9,7.2,18.7,7.2,19.6C7.2,19.6,7.2,19.6,7.2,19.6z M7.5,18.3
	C7.5,18.3,7.5,18.3,7.5,18.3c0-0.2,0-0.4,0-0.6c0-0.1,0.1-0.2,0.2-0.3c0.1,0,0.2,0.1,0.3,0.2c0.1,0.4,0,0.7-0.2,1
	c0,0.1-0.2,0.1-0.2,0.2c0-0.1-0.1-0.1-0.1-0.2C7.5,18.6,7.5,18.4,7.5,18.3z M12.7,22.2c-0.1,0.1-0.3,0-0.4,0c-0.5-0.1-1-0.3-1.4-0.4
	c-0.5-0.1-1,0-1.4,0c-0.5,0.1-1,0.2-1.5,0.3c-0.3,0.1-0.4-0.1-0.4-0.4c0.1-0.4,0.4-0.6,0.8-0.5c0.3,0,0.7,0,1,0c0.6,0,1.3,0,1.9,0
	c0.8,0,1.5,0,2.3,0C13.3,21.6,13.1,21.9,12.7,22.2z"/>
<path class="st4" d="M9.6,8.9c0-0.4,0-0.7,0-1.1c0.3,0,0.6,0,0.9,0c0.3,0,0.5,0,0.8,0.1c0.2,0,0.4,0.1,0.4,0.3c0,0.2,0,0.4-0.1,0.6
	c-0.1,0.1-0.3,0.1-0.4,0.1C10.8,8.9,10.2,8.9,9.6,8.9z"/>
<path class="st4" d="M8.6,8.8c-0.6,0-1.2,0-1.7,0c-0.1,0-0.2-0.2-0.2-0.3C6.6,8.2,6.8,7.9,7.1,7.9c0.2,0,0.4-0.1,0.5-0.1
	c0.3,0,0.7,0,1,0C8.6,8.2,8.6,8.5,8.6,8.8z"/>
<path class="st4" d="M11.4,19.7c0,0.1,0,0.2,0,0.3c0,0.1-0.1,0.2-0.2,0.2c-0.6,0-1.2,0-1.8,0c-0.1,0-0.1,0-0.2-0.1
	c0-0.1-0.1-0.2-0.1-0.4C9.9,19.7,10.6,19.7,11.4,19.7z"/>
<path class="st4" d="M10,19.3c-0.2,0-0.4,0-0.6,0c-0.1,0-0.2-0.1-0.2-0.1c0.1-0.1,0.1-0.2,0.2-0.3c0,0,0.1,0,0.2,0
	c0.5,0,1.1,0,1.6,0c0.1,0,0.3,0,0.3,0.2c0,0.2-0.1,0.2-0.3,0.2C10.8,19.3,10.4,19.3,10,19.3C10,19.3,10,19.3,10,19.3z"/>
</svg>
