<svg id="图层_1" data-name="图层 1" xmlns="http://www.w3.org/2000/svg" viewBox="0 0 127.56 127.56"><path d="M64-.28a63.78,63.78,0,1,0,63.82,63.75A63.85,63.85,0,0,0,64-.28ZM64.09,121a57.47,57.47,0,1,1,57.43-57.5A57.53,57.53,0,0,1,64.09,121Z"/><path d="M26.62,64.55a5.68,5.68,0,1,0,5.68-5.68A5.67,5.67,0,0,0,26.62,64.55Z"/><path d="M89,64.55a5.68,5.68,0,0,0,11.35,0h0a5.68,5.68,0,0,0-11.35,0Z"/><path d="M57.83,33.34a5.67,5.67,0,1,0,5.67-5.67A5.67,5.67,0,0,0,57.83,33.34Z"/><path d="M35.13,41.85a5.68,5.68,0,1,0,5.68-5.67A5.68,5.68,0,0,0,35.13,41.85Z"/><path d="M90.73,37.31a2.75,2.75,0,0,0-4,0l-27.23,21A7.66,7.66,0,1,0,70.31,69.08l21-27.23C91.87,40.15,91.87,38.45,90.73,37.31Z"/></svg>