<svg id="图层_1" data-name="图层 1" xmlns="http://www.w3.org/2000/svg" viewBox="0 0 127.56 127.56"><path d="M116.5,21.23H10.72A11,11,0,0,0-.17,32.11v74.67a11,11,0,0,0,10.89,10.89H116.5a11,11,0,0,0,10.89-10.89V32.11A11,11,0,0,0,116.5,21.23ZM12.54,26H113.8c4.53,0,9.2,3.67,9.2,8.2v1.54a.18.18,0,0,1-.1.16L63.61,70.07,5,34.85V33.54A7.57,7.57,0,0,1,12.54,26Zm97.74,86H17.58C10.66,112,5,107.34,5,100.42V41.74L61.12,74.4a3.31,3.31,0,0,0,2.49.63,5.78,5.78,0,0,0,2.49-.63l56.4-32.66v60.05C122.5,108,116.48,112,110.28,112Z"/></svg>