<svg id="图层_1" data-name="图层 1" xmlns="http://www.w3.org/2000/svg" viewBox="0 0 127.56 127.56"><path d="M44.15,6.72c-2,0-3.13,1.6-3.13,3.58h0v22L10.39,1.61C9,.24,6.71-.74,5.34.69s-1.34,2.58,0,4L37,36.39H15c-2,0-3.57,1.09-3.57,3.06s1.6,3.1,3.57,3.1H43.58A3.58,3.58,0,0,0,47.16,39h0V10.3c0-2-1-3.58-3-3.58Z"/><path d="M92.07,6.72c-2,0-3,1.6-3,3.58V39h0a3.58,3.58,0,0,0,3.58,3.59h28.57c2,0,3.57-1.12,3.57-3.1s-1.6-3.06-3.57-3.06h-22L130.89,4.65c1.34-1.38,1.34-2.57,0-4s-3.63-.45-5,.92L95.21,32.34v-22h0c0-2-1.16-3.58-3.14-3.58Z"/><path d="M44.15,120.82c2,0,3-1.6,3-3.58V88.57h0A3.58,3.58,0,0,0,43.58,85H15c-2,0-3.57,1.11-3.57,3.09S13,91.14,15,91.14H37L5.34,122.88c-1.34,1.39-1.34,2.58,0,4s3.63.45,5.05-.93L41,95.2v22h0c0,2,1.16,3.58,3.13,3.58Z"/><path d="M92.07,120.82c2,0,3.14-1.6,3.14-3.58h0v-22l30.63,30.72c1.42,1.38,3.68,2.35,5,.93s1.34-2.58,0-4L99.25,91.14h22c2,0,3.57-1.08,3.57-3.06S123.19,85,121.22,85H92.65a3.58,3.58,0,0,0-3.58,3.58h0v28.67c0,2,1,3.58,3,3.58Z"/></svg>