<svg id="图层_1" data-name="图层 1" xmlns="http://www.w3.org/2000/svg" viewBox="0 0 127.56 127.56"><path d="M124.9,91.72c-2,0-3.12,1.6-3.12,3.58h0v22L91.28,86.61c-1.42-1.37-3.67-2.35-5-.92s-1.33,2.58,0,4l31.51,31.74H95.88c-2,0-3.56,1.09-3.56,3.06s1.59,3.1,3.56,3.1h28.46a3.57,3.57,0,0,0,3.55-3.59h0V95.3c0-2-1-3.58-3-3.58Z"/><path d="M3.32,91.72c-2,0-3,1.6-3,3.58V124h0a3.58,3.58,0,0,0,3.56,3.59H32.35c2,0,3.56-1.12,3.56-3.1s-1.59-3.06-3.56-3.06H10.47L42,89.65c1.33-1.38,1.33-2.57,0-4s-3.62-.45-5,.92L6.44,117.34v-22h0c0-2-1.15-3.58-3.12-3.58Z"/><path d="M124.9,35.82c2,0,3-1.6,3-3.58V3.57h0A3.56,3.56,0,0,0,124.34,0H95.88c-2,0-3.56,1.11-3.56,3.09s1.59,3.06,3.56,3.06h21.88L86.25,37.88c-1.33,1.39-1.33,2.58,0,4s3.61.45,5-.93l30.5-30.72v22h0c0,2,1.16,3.58,3.12,3.58Z"/><path d="M3.32,35.82c2,0,3.12-1.6,3.12-3.58h0v-22L37,40.92c1.41,1.38,3.67,2.35,5,.93s1.33-2.58,0-4L10.47,6.14H32.35c2,0,3.56-1.08,3.56-3.06S34.31,0,32.35,0H3.89A3.57,3.57,0,0,0,.33,3.57h0V32.24c0,2,1,3.58,3,3.58Z"/></svg>