<svg id="图层_1" data-name="图层 1" xmlns="http://www.w3.org/2000/svg" viewBox="0 0 127.56 127.56"><path d="M84.37,126.18H83.9c-2.06,0-4.58-.83-4.87-4.77l0-.53V105.56a14.61,14.61,0,0,0-4.33-10.34l-4-3.9,5.48-1C92.2,87.54,101,78.25,101,64.2a24,24,0,0,0-5.94-16.11L94,46.87l.5-1.55A20.23,20.23,0,0,0,94.46,33c-5.94.37-12,4.86-12.74,5.42l-1.13.85-1.36-.36a56.48,56.48,0,0,0-14.7-1.8,56.12,56.12,0,0,0-14.62,1.76l-1.38.37-1.13-.89c-.3-.23-6.68-5.19-13-5.58a20.4,20.4,0,0,0,0,12.58L35,46.88l-1.08,1.24a24,24,0,0,0-5.87,16c0,14,8.79,23.31,24.76,26.17l5.5,1-4,3.89a14.23,14.23,0,0,0-3.94,6.89l-.41,1.69-1.68.42c-7.64,1.9-13.91.18-17.22-4.72-.42-.61-.82-1.18-1.21-1.7,0,.06.05.13.07.2,1.18,3.58,3.38,10.24,16.83,8.68l3.2-.38v13.77c0,.15,0,.3,0,.46,0,1.15.11,3.28-1.59,4.66a5.15,5.15,0,0,1-4.69.68l-.25-.07a63.75,63.75,0,0,1,21-123.94h0A63.76,63.76,0,0,1,84.82,126ZM81.74,95a20.37,20.37,0,0,1,3,10.58V120A58,58,0,0,0,64.45,7.58h0A58,58,0,0,0,44.18,120v-7.37c-15.31.58-18.5-9.06-19.74-12.83-.12-.34-.27-.81-.34-1a12,12,0,0,0-3.78-3.4c-1.69-1.14-3.28-2.21-3.55-4.19a4,4,0,0,1,1-3.11l.36-.42.49-.25c8.28-4.26,15,5.59,17.15,8.82s6.41,3.23,9.51,2.7a19.88,19.88,0,0,1,1.9-4C31.29,90.62,22.29,79.6,22.29,64.16a29.76,29.76,0,0,1,6.26-18.57A26.61,26.61,0,0,1,29.68,29l.69-1.78,1.77-.16c7.43-.66,14.66,3.79,17.64,5.91a63.43,63.43,0,0,1,14.75-1.61A63.81,63.81,0,0,1,79.39,33c3.18-2.22,10.19-6.37,17.36-5.72l1.79.16.69,1.84a26.5,26.5,0,0,1,1.18,16.25,29.68,29.68,0,0,1,6.35,18.67C106.76,79.68,97.71,90.71,81.74,95Z"/></svg>