<svg id="图层_1" data-name="图层 1" xmlns="http://www.w3.org/2000/svg" viewBox="0 0 127.56 127.56"><path d="M112.78,128.61H15.17a14.49,14.49,0,0,1-11-4.5,15.4,15.4,0,0,1-4.17-11V16A14.89,14.89,0,0,1,4.07,5.57,14.32,14.32,0,0,1,15,1.05h97.48a16.12,16.12,0,0,1,5.77,1.11,14.53,14.53,0,0,1,4.83,3.19,15.26,15.26,0,0,1,3.23,4.76,14.88,14.88,0,0,1,1.21,6v97.47a14.79,14.79,0,0,1-4.21,10.73A14.26,14.26,0,0,1,112.78,128.61Zm-.2-121.84H15A8.7,8.7,0,0,0,8.27,9.45,9.23,9.23,0,0,0,5.71,16v97.2a9.73,9.73,0,0,0,2.61,7,8.89,8.89,0,0,0,6.85,2.71h97.61a8.6,8.6,0,0,0,6.48-2.61,9.11,9.11,0,0,0,2.57-6.72V16.1a9.05,9.05,0,0,0-.73-3.7h0a9.76,9.76,0,0,0-2-3,8.69,8.69,0,0,0-2.93-1.93A9.4,9.4,0,0,0,112.58,6.77ZM80.38,110.62H47.16a7.47,7.47,0,0,1-5.69-2.07,7.21,7.21,0,0,1,5.69-12.23h4.61V32.52H46.88c-2.58,0-4.51-.79-5.72-2.34a7.67,7.67,0,0,1-1.57-4.81,7.64,7.64,0,0,1,1.57-4.8c1.21-1.56,3.14-2.35,5.72-2.35H80.66c2.58,0,4.51.79,5.72,2.35A7.66,7.66,0,0,1,88,25.37a7.62,7.62,0,0,1-1.57,4.8c-1.21,1.56-3.14,2.35-5.72,2.35H74.94V96.31h5.44A6.94,6.94,0,0,1,88,103.46c0,.5,0,3.54-1.88,5.08A8.67,8.67,0,0,1,80.38,110.62ZM47.16,102c-1,0-1.4.21-1.47.29a1.55,1.55,0,0,0-.38,1.14,1.51,1.51,0,0,0,.33,1.16s.31.28,1.52.28H80.5c1.11,0,1.4-.28,1.4-.28a1.51,1.51,0,0,0,.33-1.16,1.55,1.55,0,0,0-.38-1.14c-.07-.08-.47-.29-1.47-.29l-11.16,0V26.81H80.66a2.66,2.66,0,0,0,1.26-.2,2.09,2.09,0,0,0,.31-1.24,2,2,0,0,0-.36-1.29,4.37,4.37,0,0,0-1.21-.14H46.88a2.9,2.9,0,0,0-1.26.19,2.15,2.15,0,0,0-.31,1.24,2,2,0,0,0,.36,1.3,4.37,4.37,0,0,0,1.21.14H57.49L57.63,102Z"/></svg>