<svg id="图层_1" data-name="图层 1" xmlns="http://www.w3.org/2000/svg" viewBox="0 0 127.56 127.56"><path d="M81.88,124.9A3.32,3.32,0,0,1,79,123.13c-1.64-3.1-4.17-8.94-2.66-13.18a10.35,10.35,0,0,1,3.88-5.41,14.94,14.94,0,0,0,5.22-7.18A46.36,46.36,0,0,0,87,91.91c1.73-6.92,3.1-10.8,11-9.89,4.71.56,7.63,2.83,10.46,5,2.6,2,5,3.74,8.34,4.31a3.3,3.3,0,0,1,2.29,5,63.77,63.77,0,0,1-36.17,28.44A3.63,3.63,0,0,1,81.88,124.9ZM95,88.54c-.52.67-1.24,3.56-1.59,5a53.67,53.67,0,0,1-1.85,6.22,21.41,21.41,0,0,1-7.22,9.94,4.14,4.14,0,0,0-1.82,2.51c-.28.77,0,2.76,1.09,5.31a57.12,57.12,0,0,0,27.39-21,31.34,31.34,0,0,1-6.69-4.22c-2.5-1.94-4.3-3.34-7.15-3.68A8,8,0,0,0,95,88.54Z"/><path d="M64.26,127.53a63.3,63.3,0,0,1-54.7-31.1,3.29,3.29,0,0,1-.13-3.16A3.33,3.33,0,0,1,12,91.43c4.61-.55,8.15-2.14,10.51-4.72,2.91-3.17,2.93-7.64,2.95-11.58,0-5.4.05-9.67,5.48-11.7,6.1-2.25,9.34.62,13.09,3.95C46.15,69.25,48.3,71.16,51,72A13.39,13.39,0,0,0,61.13,70.7a13.66,13.66,0,0,0,6.6-8.21l.09-.27c0-.12.05-.24.08-.37a16.19,16.19,0,0,0,.55-2.63c0-.3.06-.53.08-.77l.07-.86c0-.16,0-.32,0-.48a47.08,47.08,0,0,0-.12-6.51c-.09-1.11-.15-2.22-.18-3.3a1.7,1.7,0,0,1,0-.22,8.16,8.16,0,0,1,1.29-4.49,3.4,3.4,0,0,1,1.26-1.06,23.07,23.07,0,0,1,5.42-1.34c3.62-.63,8.12-1.42,10.49-4.21l.12-.14.22-.23.1-.12c4.2-5.92,4.1-11.72-.31-15.48a13.11,13.11,0,0,0-1.1-.81c-2.68-1.86-7.08-4.92-5.16-10.86.29-.9.62-1.77,1-2.73A3.31,3.31,0,0,1,85.88,3.8a63.54,63.54,0,0,1,38.25,81.78,3.33,3.33,0,0,1-2.28,2.07,11.92,11.92,0,0,1-3.07.54c-3.31,0-5.62-1.79-8.28-3.87-3.06-2.37-6.52-5-12.15-5.71-10.42-1.24-12.81,4.91-14.7,12.46l-.06.23a39.54,39.54,0,0,1-1.43,4.84A11.51,11.51,0,0,1,78,101.86a13.86,13.86,0,0,0-5,6.93c-1.6,4.46,0,9.84,1.7,13.56a3.33,3.33,0,0,1-.15,3A3.28,3.28,0,0,1,72.12,127,61.94,61.94,0,0,1,64.26,127.53ZM17.85,97a56.62,56.62,0,0,0,46.41,23.9c.91,0,1.84,0,2.81-.08-1.67-5.32-1.76-10.1-.27-14.26a20.13,20.13,0,0,1,7-9.81,5.37,5.37,0,0,0,2.18-3,33.56,33.56,0,0,0,1.18-4l.06-.24C78.67,83.63,82.09,70,99.13,72c7.45.87,12.07,4.45,15.44,7.06,2.17,1.7,3.12,2.34,3.94,2.46A56.84,56.84,0,0,0,86.94,11.36c.2.49.88,1.13,2.64,2.36.52.35,1.08.76,1.62,1.2,7.13,6.09,7.67,15.67,1.44,24.45a8.42,8.42,0,0,1-.61.73l0,0a2.43,2.43,0,0,1-.3.34c-3.93,4.45-9.88,5.49-14.24,6.26-.48.08-1.57.27-2.48.47v.07c0,.91.07,1.84.15,2.77a52,52,0,0,1,.14,7.39c0,.24,0,.51-.06.78l-.07.76c0,.37-.06.74-.11,1.14a23.58,23.58,0,0,1-.7,3.4,4,4,0,0,1-.11.52,1.87,1.87,0,0,1-.07.22,3.24,3.24,0,0,1-.16.47,20.41,20.41,0,0,1-9.68,11.81A20.15,20.15,0,0,1,49,78.32c-4-1.24-7-3.85-9.35-5.94-3.9-3.46-4.31-3.5-6.41-2.73a2.46,2.46,0,0,0-.72.36c-.41.55-.43,3.89-.43,5.15,0,4.63-.06,11-4.7,16A20.62,20.62,0,0,1,17.85,97ZM75.13,46.31Z"/><path d="M8.36,88.18H7.58a3.32,3.32,0,0,1-3-2.15A63.65,63.65,0,0,1,64.25,0h0A63.17,63.17,0,0,1,75.55,1a3.32,3.32,0,0,1,2.5,4.49c-.23.57-.44,1.13-.65,1.78C75,14.71,79.58,19,83.82,22l.28.2.49.35.12.1c1.66,1.41,3.87,4.65,0,10.4a3.58,3.58,0,0,1-.61.68c-1.83,1.56-3.72,1.76-6.41,1.89-3,.15-6.82.33-10.28,4.18l0,0-.15.2-.07.09a9.82,9.82,0,0,0-2.27,6.56,46.8,46.8,0,0,0,.13,5.45,39.28,39.28,0,0,1,0,6.21v.11a20.67,20.67,0,0,1-.58,2.92,10.28,10.28,0,0,1-5.08,6.35,10,10,0,0,1-7.46,1c-2-.61-3.75-2.2-5.65-3.89-3.81-3.38-8.54-7.57-16.57-4.59C22.66,62.86,22.06,68.28,22,75.1c0,3.65,0,7.09-2.05,9.29C17.16,87.47,12.25,88.18,8.36,88.18ZM64.26,6.6A57.22,57.22,0,0,0,7.12,63.75,56.52,56.52,0,0,0,10,81.49c2.74-.19,4.36-.85,5-1.51.35-.76.36-3.34.37-4.9,0-5.82.09-16.63,12.05-21.09,11.76-4.37,19.25,2.27,23.27,5.84A18.37,18.37,0,0,0,54,62.35a3.69,3.69,0,0,0,2.34-.49,3.62,3.62,0,0,0,1.82-2.24,15.24,15.24,0,0,0,.39-2,35.71,35.71,0,0,0-.08-5.1,53,53,0,0,1-.13-6.12,16.38,16.38,0,0,1,3.78-10.53,4.63,4.63,0,0,1,.36-.46l.17-.18c5.3-5.81,11.25-6.1,14.82-6.27a13.1,13.1,0,0,0,2.17-.2,5.9,5.9,0,0,0,.58-1.24L80,27.41C71.89,21.78,68.72,14.91,70.6,7A53.12,53.12,0,0,0,64.26,6.6Z"/></svg>