<svg id="图层_1" data-name="图层 1" xmlns="http://www.w3.org/2000/svg" viewBox="0 0 127.56 127.56"><path d="M125,29,92.68,2.54A9.87,9.87,0,0,0,86.42.42H8.89C4,.42,0,3.66,0,7.66V120.73c0,4,4,7.24,8.85,7.25H118.74c4.89,0,8.85-3.25,8.85-7.25V34.11A6.59,6.59,0,0,0,125,29ZM92.16,10.31l23.34,19.1H93.93A1.63,1.63,0,0,1,92.16,28Zm28.35,110.42a1.64,1.64,0,0,1-1.77,1.45H8.89a1.64,1.64,0,0,1-1.77-1.45V7.66A1.63,1.63,0,0,1,8.89,6.22H85.07V28c0,4,4,7.24,8.86,7.25h26.58Z"/><path d="M77.83,78.71a14.27,14.27,0,0,0-4.16-6,11.76,11.76,0,0,0-5.14-2.52,29.74,29.74,0,0,0-6.25-.5H50.19V104.8H62.85a23.85,23.85,0,0,0,5.64-.6,12.91,12.91,0,0,0,4.19-1.76,12.49,12.49,0,0,0,3.19-3.18,17,17,0,0,0,2.4-5.12,24.61,24.61,0,0,0,.93-7.09A23.68,23.68,0,0,0,77.83,78.71Zm-4.34,15a11,11,0,0,1-2.57,4.44A7.78,7.78,0,0,1,67.77,100a18.14,18.14,0,0,1-5.44.65h-7.5V73.83h7.38a18,18,0,0,1,6,.72,9.1,9.1,0,0,1,4.4,4q1.8,3,1.8,8.47A21.6,21.6,0,0,1,73.49,93.75Z"/><path d="M43.21,75.05a8.69,8.69,0,0,0-2.81-3.39A10.73,10.73,0,0,0,36.07,70a32.49,32.49,0,0,0-5.34-.33H17.49V104.8h4.64V90.53h9q7.44,0,10.29-3.11a11.41,11.41,0,0,0,1.78-12.37ZM37.6,84.71q-1.89,1.67-6.39,1.67H22.13V73.83h9a20.3,20.3,0,0,1,4.33.31,5.27,5.27,0,0,1,2.94,2.07A6.39,6.39,0,0,1,39.49,80,6,6,0,0,1,37.6,84.71Z"/><polygon points="85.83 104.8 90.48 104.8 90.48 88.85 106.95 88.85 106.95 84.71 90.48 84.71 90.48 73.83 109.51 73.83 109.51 69.69 85.83 69.69 85.83 104.8"/></svg>