<svg id="图层_1" data-name="图层 1" xmlns="http://www.w3.org/2000/svg" viewBox="0 0 127.56 127.56"><path d="M85.74,116.05H9.9A10.27,10.27,0,0,1-.56,106c0-7.47,3.46-15,10-21.9A55.89,55.89,0,0,1,26,72.31a30.58,30.58,0,0,1-11.4-23.7V41.43C14.61,24,29.51,9.85,47.83,9.85S81.05,24,81.05,41.43V48.6A30.61,30.61,0,0,1,69.64,72.31,55.74,55.74,0,0,1,86.21,84.12c6.54,6.85,10,14.42,10,21.89A10.27,10.27,0,0,1,85.74,116.05ZM47.83,15.58c-15.16,0-27.49,11.59-27.49,25.85v7.18c0,8.93,4.88,17.11,13.06,21.89l5.34,3.12-5.83,2C14.89,82,5.17,96,5.17,106a4.54,4.54,0,0,0,4.73,4.3H85.74a4.54,4.54,0,0,0,4.73-4.3c0-10-9.71-24-27.73-30.34l-5.82-2,5.33-3.12c8.18-4.78,13.07-13,13.07-21.9V41.43C75.32,27.17,63,15.58,47.83,15.58Z"/><path d="M118.32,108.47h-15.1v-5.73h15.1a2.8,2.8,0,0,0,3-2.62c0-7.38-7.28-17.8-20.76-22.55l-5.83-2.06L100,72.39a18.76,18.76,0,0,0,9.65-16.16v-5.5c0-10.53-9.13-19.09-20.35-19.09a21.76,21.76,0,0,0-4.11.39L84.13,26.4a27.32,27.32,0,0,1,5.19-.49c14.38,0,26.08,11.13,26.08,24.82v5.5a24,24,0,0,1-8.15,18c13,6.31,19.75,17.37,19.75,25.94A8.52,8.52,0,0,1,118.32,108.47Z"/></svg>