<svg id="图层_1" data-name="图层 1" xmlns="http://www.w3.org/2000/svg" viewBox="0 0 127.56 127.56"><path d="M107.9,42.37a42.52,42.52,0,0,0-85,0A41.22,41.22,0,0,0,44.59,79.22,57.17,57.17,0,0,0,9.16,121.74c-.47,2.36-.06,5.2,2.78,5.67h.94c2.37,0,2.26-1.42,2.73-3.78,4.25-22.21,20.62-38.27,43.3-38.74h6.94A42.25,42.25,0,0,0,107.9,42.37Zm-79.59,0C28.31,23.94,41,5.3,65.38,5.3c23.62,0,37.07,18.64,37.07,37.07,0,25.63-18.64,36.6-36.6,37.07H64.44C46.48,79,28.31,65,28.31,42.37Zm68.25,43-.32-.16a3.77,3.77,0,0,0-4.41,5.73,10.82,10.82,0,0,0,2.53,2.46c10.87,7.56,18.43,18,20.79,30.24.47,2.36,1.36,3.78,3.73,3.78h.94c2.36-.47,2.25-2.84,1.78-5.67-2.83-14.65-11.81-27.4-25-36.38Z"/></svg>