<svg id="图层_1" data-name="图层 1" xmlns="http://www.w3.org/2000/svg" viewBox="0 0 127.56 127.56"><path d="M117.67,70.89a41,41,0,0,0-9-15.24c0-.47.06-.95.06-1.43a21.4,21.4,0,0,0-2.85-10.57v0C105.9,19.56,86.54,0,62.74,0S19.58,19.56,19.58,43.61v.15A21.48,21.48,0,0,0,16.8,54.22c0,.44,0,.88.05,1.32A41.08,41.08,0,0,0,7.77,70.9C3.9,83.36,4.36,98.16,12.84,101.05a9.46,9.46,0,0,0,8.71-1.66,3.78,3.78,0,0,1,.22.33c-4.76,2.9-7.4,6.94-7.4,11.46,0,9.29,10.92,16,26,16,8,0,15.38-2.07,20.13-5.59a37.37,37.37,0,0,0,4.49,0c4.75,3.53,12.15,5.59,20.13,5.59,15,0,26-6.73,26-16,0-4.51-2.64-8.55-7.38-11.45a3.78,3.78,0,0,0,.22-.33A9.38,9.38,0,0,0,112.6,101c8.48-2.88,8.94-17.68,5.07-30.15ZM110.56,95c-1.69.57-3.68-1.22-4.92-2.71a3.18,3.18,0,0,0-5.25.56,41.06,41.06,0,0,1-4,6,3.18,3.18,0,0,0,1.28,4.91c4.44,1.85,7,4.53,7,7.35,0,5.33-8.79,9.66-19.61,9.66-7,0-13.54-1.87-17-4.89a3.24,3.24,0,0,0-2.08-.77h-.24a36.91,36.91,0,0,1-6,0,3.06,3.06,0,0,0-2.32.76c-3.5,3-10,4.89-17,4.89-10.81,0-19.61-4.33-19.61-9.66,0-2.83,2.55-5.52,7-7.37A3.2,3.2,0,0,0,29,98.91a41,41,0,0,1-4-6.07,3.18,3.18,0,0,0-5.25-.55c-1.25,1.49-3.22,3.33-4.94,2.73-3.26-1.11-4.45-11.27-1-22.24a35.17,35.17,0,0,1,8.6-13.89,3.2,3.2,0,0,0,.87-2.73,13.12,13.12,0,0,1-.16-1.94,15.28,15.28,0,0,1,2.37-8A3.23,3.23,0,0,0,26,44.34c0-.24,0-.49,0-.73C26,23.07,42.46,6.37,62.75,6.37s36.79,16.7,36.79,37.24c0,.22,0,.43,0,.65a3.25,3.25,0,0,0,.46,1.88,15.24,15.24,0,0,1,2.41,8.08,12.91,12.91,0,0,1-.17,2,3.16,3.16,0,0,0,.86,2.74,35.23,35.23,0,0,1,8.52,13.81c3.4,11,2.21,21.13-1,22.23Z"/></svg>