<svg id="图层_1" data-name="图层 1" xmlns="http://www.w3.org/2000/svg" viewBox="0 0 127.56 127.56"><path d="M28.91,53.2l-4.44-6.26V21.48l16.16-8.39V23.61l9.63-5.49V7l13-7.56,13,7.08V18.09l10.06,5.59V13l15.73,8.5v25.3l-4.47,5.94L63.26,33.46Zm1-8,.6.84L63.22,27.23,96.15,45.7l.53-.7V24.74l-4.9-2.64V32.88L70.89,21.28V9.71l-7.53-4.1-7.68,4.47V21.26L35.21,33V22l-5.33,2.77Z"/><path d="M63.26,127a2.68,2.68,0,0,1-1.35-.36,3,3,0,0,1-.57-.43L46.19,117.4c-1.75-1-3.38-1.87-4.86-2.69-16.25-9-16.88-9.93-16.84-25.86v-27a2.7,2.7,0,0,1,1.36-2.35L61.77,38.91l.1-.06a2.69,2.69,0,0,1,1.81-.34,2.5,2.5,0,0,1,.88.31l.14.07L100.61,59.2A2.71,2.71,0,0,1,102,61.56V86.44c0,1.65,0,3.14,0,4.49.14,13.68-.65,14.92-14,22.23l-23.1,13.29-.18.1-.17.09A2.68,2.68,0,0,1,63.26,127ZM29.91,63.46v25.4c0,6.92,0,10.4,1.46,12.65s5.24,4.41,12.57,8.45q2.25,1.23,4.93,2.73l14.48,8.38,22-12.64c5.71-3.11,9-5,10.2-6.92S96.65,96.76,96.59,91c0-1.37,0-2.88,0-4.55V63.14L63.26,44.3Z"/><polygon points="63.31 72.24 85.09 84.83 85.14 95.96 63.2 108.26 63.27 113.4 89.62 98.04 89.62 82.02 63.26 67.01 63.31 72.24"/><path d="M41.53,79.41c.22-10.58-1.28-7.71,5.58-11.71l16.1-9.1V53.39C54.43,58.16,46,63.29,37.11,68L37,87.49,63.31,72.24,63.24,67Z"/><path d="M37.06,93.24c0,5.09-.44,4.71,1.46,6l24.75,14.2-.07-5.07Z"/><polygon points="63.26 53.38 63.28 58.61 89.72 73.35 89.72 68.61 63.26 53.38"/></svg>