<svg id="图层_1" data-name="图层 1" xmlns="http://www.w3.org/2000/svg" viewBox="0 0 127.56 127.56"><path d="M115,0H12.27C8.35,0,4.91,3.63,4.91,7.79V120.25a7.37,7.37,0,0,0,7.36,7.33H115a7.05,7.05,0,0,0,7-7.33V7.79C121.93,3.63,118.88,0,115,0ZM46.2,91.7V67.78H80.64V91.7ZM80.64,97v25.35H46.2V97Zm35.87-34.44H86.06V37.17h30.45Zm-35.87,0H46.2V37.17H80.64Zm-39.86,0H10.33V37.17H40.78ZM10.33,67.78H40.78V91.7H10.33Zm75.73,0h30.45V91.7H86.06ZM12.27,5.29H115c1,0,1.56,1.29,1.56,2.5V31.91H10.33V7.79C10.33,6.58,11.3,5.29,12.27,5.29ZM10.33,120.23V97H40.78v25.35H12.27a2,2,0,0,1-1.94-2.06ZM115,122.31H86.06V97h30.45v23.27c0,1.22-.58,2.08-1.56,2.08Z"/></svg>