<svg id="图层_1" data-name="图层 1" xmlns="http://www.w3.org/2000/svg" viewBox="0 0 127.56 127.56"><path d="M63.93,120.17c-14.89,0-27.83-1.42-33-3.61l-.87-.54-3-2.65V54.6L20.69,61a6.66,6.66,0,0,1-9.19,0L2.06,51.56A6.33,6.33,0,0,1,.17,47a6.47,6.47,0,0,1,1.9-4.61l26.2-26.19H50l.51,2.54a13.68,13.68,0,0,0,26.8,0l.51-2.53H99.62l26.2,26.2a6.52,6.52,0,0,1,0,9.21L116.37,61a6.63,6.63,0,0,1-9.18,0l-6.41-6.39v58.77l-3.85,3.19C91.74,118.75,78.8,120.17,63.93,120.17Zm-30.06-9.26c3.93,1.45,14.74,2.93,30.06,2.93s26.12-1.48,30.08-2.93l.43-.39V39.36l17.2,17.18,9.69-9.45L97,22.5H82.85A20,20,0,0,1,45,22.5H30.88L6.53,46.86,16,56.54,33.42,39.36v71.17Z"/></svg>