<svg id="图层_1" data-name="图层 1" xmlns="http://www.w3.org/2000/svg" viewBox="0 0 127.56 127.56"><path d="M121.31,42H52.41c-4.32,0-7.11-3-7.11-7.64V14.06c0-4.64,2.79-7.64,7.11-7.64h68.9c4.32,0,7.11,3,7.11,7.64V34.39C128.42,39,125.63,42,121.31,42ZM55.37,35.14h63A3.18,3.18,0,0,0,121.54,32V16.49a3.18,3.18,0,0,0-3.19-3.18h-63a3.18,3.18,0,0,0-3.19,3.18V32A3.19,3.19,0,0,0,55.37,35.14Z"/><path d="M121.31,83.6H72.21c-4.32,0-7.11-3-7.11-7.63V55.64C65.1,51,67.89,48,72.21,48h49.1c4.32,0,7.11,3,7.11,7.64V76C128.42,80.61,125.63,83.6,121.31,83.6ZM75.4,76.72h42.72a3.42,3.42,0,0,0,3.42-3.42v-15a3.42,3.42,0,0,0-3.42-3.41H75.4A3.42,3.42,0,0,0,72,58.3v15A3.42,3.42,0,0,0,75.4,76.72Z"/><path d="M121.31,125.18H72.21c-4.32,0-7.11-3-7.11-7.64V97.22c0-4.64,2.79-7.64,7.11-7.64h49.1c4.32,0,7.11,3,7.11,7.64v20.32C128.42,122.18,125.63,125.18,121.31,125.18ZM75.2,118.3h43.12a3.22,3.22,0,0,0,3.22-3.22V99.68a3.22,3.22,0,0,0-3.22-3.22H75.2A3.22,3.22,0,0,0,72,99.68v15.4A3.22,3.22,0,0,0,75.2,118.3Z"/><path d="M50.4,113.49H18.19V74.66H50.4c2.36,0,4.28-1.19,4.28-3.88s-1.92-3.87-4.28-3.87H18.19V39.47h6.48C27,39.47,29,37.28,29,34.59V11.82a5.22,5.22,0,0,0-1.22-3.41,4,4,0,0,0-3.06-1.47H5.15C2.78,6.94.86,9.13.86,11.82V34.59c0,2.69,1.92,4.88,4.29,4.88h6.47v76.89c0,2.69.92,4.88,3.29,4.88H50.4c2.36,0,4.28-1.19,4.28-3.88S52.76,113.49,50.4,113.49ZM8.62,33.79A2.63,2.63,0,0,1,6,31.16V15.57a2.63,2.63,0,0,1,2.63-2.63H21.13a2.63,2.63,0,0,1,2.63,2.63V31.16a2.63,2.63,0,0,1-2.63,2.63Z"/></svg>