<svg id="图层_1" data-name="图层 1" xmlns="http://www.w3.org/2000/svg" viewBox="0 0 127.56 127.56"><path d="M125,29,92.68,2.54A9.87,9.87,0,0,0,86.42.42H8.89C4,.42,0,3.66,0,7.66V120.73c0,4,4,7.24,8.85,7.25H118.74c4.89,0,8.85-3.25,8.85-7.25V34.11A6.59,6.59,0,0,0,125,29ZM92.16,10.31l23.34,19.1H93.93A1.63,1.63,0,0,1,92.16,28Zm28.35,110.42a1.64,1.64,0,0,1-1.77,1.45H8.89a1.64,1.64,0,0,1-1.77-1.45V7.66A1.63,1.63,0,0,1,8.89,6.22H85.07V28c0,4,4,7.24,8.86,7.25h26.58Z"/><path d="M34.54,102.28l19.7-24.35V73.78H29.11v4.15H48.69Q47,79.7,45.05,82.09l-18,22.49v4.31H54.82v-4.14H32.41Z"/><rect x="60.61" y="73.78" width="4.64" height="35.11"/><path d="M99.16,79.15a8.55,8.55,0,0,0-2.81-3.39A10.45,10.45,0,0,0,92,74.12a31.2,31.2,0,0,0-5.34-.34H73.44v35.11h4.65V94.62h9q7.44,0,10.29-3.1a11.41,11.41,0,0,0,1.78-12.37ZM93.55,88.8q-1.89,1.68-6.39,1.68H78.09V77.93h9a19.64,19.64,0,0,1,4.33.31,5.14,5.14,0,0,1,2.94,2.07,6.34,6.34,0,0,1,1.11,3.77A6,6,0,0,1,93.55,88.8Z"/></svg>