<svg id="图层_1" data-name="图层 1" xmlns="http://www.w3.org/2000/svg" viewBox="0 0 127.56 127.56"><path d="M45,69.46H42V46.27a3.18,3.18,0,0,0-5.81-1.78L18.42,70.87a3.17,3.17,0,0,0,2.63,4.95H35.69v5.66a3.18,3.18,0,0,0,6.35,0V75.81h3a3.17,3.17,0,0,0,0-6.34Zm-18,0,8.66-12.83V69.46Z"/><path d="M106.15,69.43h-3V46.24a3.18,3.18,0,0,0-5.81-1.78L79.53,70.84a3.18,3.18,0,0,0,2.63,5H96.8v5.66a3.18,3.18,0,1,0,6.35,0V75.77h3a3.17,3.17,0,1,0,0-6.34Zm-18,0L96.79,56.6V69.43Z"/><path d="M77.1,56.59a13.51,13.51,0,1,0-27,0V71.12a13.52,13.52,0,1,0,27,0ZM63.6,78.28a7.17,7.17,0,0,1-7.17-7.16V56.6a7.17,7.17,0,0,1,14.34,0V71.11A7.18,7.18,0,0,1,63.6,78.28Z"/><path d="M64-.28a63.78,63.78,0,1,0,63.82,63.75A63.85,63.85,0,0,0,64-.28ZM64.09,121a57.47,57.47,0,1,1,57.43-57.5A57.53,57.53,0,0,1,64.09,121Z"/></svg>