<svg id="图层_1" data-name="图层 1" xmlns="http://www.w3.org/2000/svg" viewBox="0 0 127.56 127.56"><path d="M124,73.85H112.6A51.22,51.22,0,0,0,106.74,53c8-2.1,13.46-8.65,13.47-16.1a3.77,3.77,0,0,0-7.5,0c0,5.11-4.28,9.35-9.8,10a51.44,51.44,0,0,0-6.79-7.55c5.63-15.92-4.24-32.92-22-37.95A37.24,37.24,0,0,0,63.93,0C45.26,0,30.15,13.58,30.17,30.28a27.19,27.19,0,0,0,1.57,9.08A49.77,49.77,0,0,0,25,46.91c-5.6-.66-9.79-4.93-9.8-10a3.57,3.57,0,0,0-3.76-3.35,3.57,3.57,0,0,0-3.75,3.35c0,7.62,5.7,14.06,13.47,16.1a51.54,51.54,0,0,0-5.86,20.83H3.9a3.38,3.38,0,1,0,0,6.71H15.27a51.22,51.22,0,0,0,5.86,20.83c-8,2.11-13.46,8.66-13.47,16.1a3.58,3.58,0,0,0,3.75,3.36,3.57,3.57,0,0,0,3.75-3.36c0-5.11,4.28-9.35,9.81-10a50.36,50.36,0,0,0,4.28,5.11,47.73,47.73,0,0,0,69.37,0,50.36,50.36,0,0,0,4.28-5.11c5.6.66,9.79,4.92,9.8,10a3.77,3.77,0,0,0,7.5,0c0-7.44-5.49-14-13.46-16.1a51.54,51.54,0,0,0,5.86-20.83H124a3.38,3.38,0,1,0,0-6.71Zm-60-67.14c14.52,0,26.28,10.56,26.26,23.55a21.32,21.32,0,0,1-.42,4.21,47.62,47.62,0,0,0-51.68,0C35.49,21.69,45,9.43,59.24,7.1A29.51,29.51,0,0,1,63.94,6.71ZM22.67,77.21c0-22.73,16.51-41.45,37.52-43.46v86.91C39.18,118.65,22.67,99.93,22.67,77.21Zm45,43.45V33.75c21,2,37.52,20.73,37.52,43.46S88.7,118.65,67.69,120.66Z"/></svg>