<svg id="图层_1" data-name="图层 1" xmlns="http://www.w3.org/2000/svg" viewBox="0 0 127.56 127.56"><path d="M47,5.67V121.89a5.67,5.67,0,0,0,5.67,5.67H74.89a5.67,5.67,0,0,0,5.67-5.67V5.67A5.67,5.67,0,0,0,74.89,0H52.66A5.67,5.67,0,0,0,47,5.67ZM71,121.18H56.54a2.83,2.83,0,0,1-2.83-2.83V9.21a2.83,2.83,0,0,1,2.83-2.83H71a2.84,2.84,0,0,1,2.84,2.83V118.35A2.84,2.84,0,0,1,71,121.18Z"/><path d="M94,37.2v84.34a5.66,5.66,0,0,0,5.67,5.66h22.23a5.66,5.66,0,0,0,5.67-5.66V37.2a5.66,5.66,0,0,0-5.67-5.66H99.71A5.66,5.66,0,0,0,94,37.2Zm24.11,83.63H103.68a2.84,2.84,0,0,1-2.84-2.84V40.75a2.84,2.84,0,0,1,2.84-2.84h14.47A2.84,2.84,0,0,1,121,40.75V118A2.84,2.84,0,0,1,118.15,120.83Z"/><path d="M-.06,69.45v52.44a5.67,5.67,0,0,0,5.67,5.67H27.84a5.67,5.67,0,0,0,5.67-5.67V69.45a5.67,5.67,0,0,0-5.67-5.67H5.61A5.67,5.67,0,0,0-.06,69.45Zm24,51.73H9.49a2.84,2.84,0,0,1-2.84-2.83V73a2.84,2.84,0,0,1,2.84-2.83H24A2.83,2.83,0,0,1,26.79,73v45.36A2.83,2.83,0,0,1,24,121.18Z"/></svg>