<svg id="图层_1" data-name="图层 1" xmlns="http://www.w3.org/2000/svg" viewBox="0 0 127.56 127.56"><defs><style>.cls-1{fill:#040000;}</style></defs><path class="cls-1" d="M127.48,59.74,97.79,37.4V24.71c0-8.45-7.76-15.33-17.3-15.33H77.9C76.5,4.31,71.29.52,65.07.52H32.13c-6.22,0-11.42,3.79-12.82,8.86H17.23C7.7,9.38,0,16.26,0,24.71v77.57c0,8.46,7.76,15.33,17.28,15.33H44.35c.63,5.86,6.16,10.47,12.94,10.47h57.16c7.22,0,13.06-5.2,13.06-11.58V59.74Zm-104-47.9C23.48,9.18,26,7,29,7H68.2c3,0,5.53,2.17,5.53,4.84v3.22c0,2.66-2.49,4.84-5.53,4.84H29c-3.05,0-5.54-2.17-5.54-4.84Zm20.71,34.5v64.77H16.93c-4.85,0-11.79-4.55-11.79-8.91V23.91c0-4.36,6.94-7.91,11.79-7.91h1.93C20,21.43,25.43,25.57,32,25.57H65.23c6.54,0,12-4.14,13.13-9.57h2.45c4.85,0,10.79,3.55,10.79,7.91V34.66H57.37C50.1,34.66,44.19,39.9,44.19,46.34Zm78.55,70.07h0c0,5.59-5.07,6.17-7.6,6.17H56.6c-2.53,0-7.59-1.58-7.59-8.17V43.17C49,40.87,54.07,39,56.6,39H89.28V66h33.46ZM95,61V42l25.23,19Z"/></svg>