<svg id="图层_1" data-name="图层 1" xmlns="http://www.w3.org/2000/svg" viewBox="0 0 127.56 127.56"><defs><style>.cls-1{fill:none;}</style></defs><path d="M125.17,102.11l-3.3,1a15.07,15.07,0,0,1,.21,2.13,12.5,12.5,0,0,1-.23,2.12l3.32,1a3,3,0,0,1,1.79,1.45,2.87,2.87,0,0,1,.19,2.31,3.14,3.14,0,0,1-3.91,1.93l-3.35-1a15.73,15.73,0,0,1-2.57,3.45l2,2.7a2.85,2.85,0,0,1,.57,2.24,2.93,2.93,0,0,1-1.25,1.92,3.18,3.18,0,0,1-4.35-.66l-2-2.7a16.52,16.52,0,0,1-4.22,1.36v3.3a3.11,3.11,0,0,1-6.22,0v-3.3A16.45,16.45,0,0,1,97.64,120l-2,2.7a3.18,3.18,0,0,1-4.34.66A2.93,2.93,0,0,1,90,121.45a2.9,2.9,0,0,1,.56-2.24l2-2.73a16.46,16.46,0,0,1-2.65-3.4l-3.27,1a3.12,3.12,0,0,1-3.91-1.92,2.92,2.92,0,0,1,1.83-3.71l.15,0,3.28-1a18.69,18.69,0,0,1-.2-2.14,13.61,13.61,0,0,1,.23-2.12l-3.31-1a3,3,0,0,1-2-3.77,3.16,3.16,0,0,1,3.92-1.93L90,97.48A16.82,16.82,0,0,1,92.6,94l-2-2.7a2.88,2.88,0,0,1,.52-4l.16-.12a3.21,3.21,0,0,1,4.35.67l2,2.71a17,17,0,0,1,4.23-1.37v-3.3a3.11,3.11,0,0,1,6.22,0v3.29a17.39,17.39,0,0,1,4.2,1.38l2.06-2.71a3.19,3.19,0,0,1,4.33-.67,2.91,2.91,0,0,1,.8,4l-.1.14L117.32,94A15.86,15.86,0,0,1,120,97.44l3.27-1a3.15,3.15,0,0,1,3.92,1.93,3,3,0,0,1-2,3.76ZM105,94.81a10.46,10.46,0,1,0,10.89,10.45A10.69,10.69,0,0,0,105,94.81Z"/><rect x="21.9" y="22.92" width="9.16" height="6.08"/><rect x="37.72" y="22.92" width="52.73" height="6.08"/><rect x="21.9" y="38.92" width="9.16" height="6.08"/><rect x="37.72" y="38.92" width="52.73" height="6.08"/><rect x="21.9" y="55.92" width="9.16" height="6.08"/><rect x="37.72" y="55.92" width="52.73" height="6.08"/><path class="cls-1" d="M38.14,61l-.09-.1Z"/><path class="cls-1" d="M9,112.16v.7c0,3.78,3.08,5.47,6.85,5.47H80.58c-2.06-3.55-3.35-10.61-3.62-15H12.75C11.26,103.38,9,106.38,9,112.16Z"/><path class="cls-1" d="M95.48,9.36H15.92a6.88,6.88,0,0,0-6.84,6.87V97.62c.69-.8,2.28-.8,3.77-.8H78.06A27.3,27.3,0,0,1,97.68,78.17l.08-66.52A3.31,3.31,0,0,0,95.48,9.36ZM38.14,61l-.09-.1-.2-.2.33.34.26.26L38.18,61Zm34.62-14.2v0Z"/><path d="M80.58,120H15.83C8,120,9,112.16,9,112.16c0-7.16,2.28-8.78,3.77-8.78H77a31,31,0,0,1,1.1-6.56H12.85c-1.49,0-6.16,0-6.85.8V16.23C6,7,12.16,6,15.92,6H92c5,0,8.76,5,8.76,9l-.08,63.17c2.08-.51,1.25-.78,3.49-.78a27.22,27.22,0,0,1,2.72.13V9.66c0-3.19-1.59-5.58-3.18-6.38C102.92,1.69,100.54.1,97.36.1H14A14.24,14.24,0,0,0-.24,14.44v98A14.24,14.24,0,0,0,14,126.8h74.2C85.13,124.56,82.51,123.33,80.58,120Z"/><path d="M38.18,61l0,0Z"/><path d="M38.05,60.86l-.2-.2Z"/><path d="M38.05,60.86l.09.1,0,0-.33-.34Z"/></svg>