<svg id="图层_1" data-name="图层 1" xmlns="http://www.w3.org/2000/svg" viewBox="0 0 127.56 127.56"><path d="M119.08,128H9.23c-4.89,0-8.85-3.25-8.85-7.25V7.68c0-4,4-7.24,8.85-7.25H86.76A9.92,9.92,0,0,1,93,2.55L125.34,29a6.57,6.57,0,0,1,2.59,5.12v86.62C127.93,124.74,124,128,119.08,128ZM9.23,6.23A1.63,1.63,0,0,0,7.46,7.68h0V120.74a1.63,1.63,0,0,0,1.77,1.45H119.08a1.64,1.64,0,0,0,1.77-1.45h0V35.22H94.27c-4.89,0-8.85-3.25-8.86-7.25V6.23Zm83.27,4.1V28a1.63,1.63,0,0,0,1.77,1.45h21.57ZM96,99H32.26c-1.95,0-3.54-1.3-3.54-2.9s1.59-2.9,3.54-2.9H96c2,0,3.55,1.3,3.55,2.9S98,99,96,99Zm0-29H32.26c-1.95,0-3.54-1.3-3.54-2.9s1.59-2.9,3.54-2.9H96c2,0,3.55,1.3,3.55,2.9S98,70,96,70ZM60.61,35.22H32.26c-1.95,0-3.54-1.3-3.54-2.9s1.59-2.9,3.54-2.9H60.61c2,0,3.54,1.3,3.54,2.9S62.57,35.22,60.61,35.22Z"/></svg>