<svg id="图层_1" data-name="图层 1" xmlns="http://www.w3.org/2000/svg" viewBox="0 0 127.56 127.56"><path d="M63.28,128.24a2.87,2.87,0,0,1-2-.81L35.28,102a2.86,2.86,0,0,1,2-4.91H51.82V76.92H31.22V91.17a2.86,2.86,0,0,1-4.87,2L.45,67.43a2.84,2.84,0,0,1-.85-2,2.88,2.88,0,0,1,.85-2L26.36,37.8a2.86,2.86,0,0,1,4.86,2V54.09h20.6V34H35.16a2.86,2.86,0,0,1-2-4.9L61.27,1.51a2.86,2.86,0,0,1,4,0L93.6,29.13a2.86,2.86,0,0,1-2,4.91H74.94V54.09h20.4V39.84a2.85,2.85,0,0,1,4.85-2L126.3,63.36a2.83,2.83,0,0,1,.86,2,2.87,2.87,0,0,1-.85,2L100.2,93.2a2.86,2.86,0,0,1-4.86-2V76.92H74.94V97.06H89.49a2.87,2.87,0,0,1,2.65,1.79,2.84,2.84,0,0,1-.66,3.12L65.27,127.44A2.82,2.82,0,0,1,63.28,128.24Zm-19-25.46,19,18.61,19.15-18.61H72.09a2.86,2.86,0,0,1-2.86-2.86V74.06a2.86,2.86,0,0,1,2.86-2.86h26.1a2.86,2.86,0,0,1,2.86,2.86V84.33l19.18-18.92L101.05,46.64V57a2.86,2.86,0,0,1-2.86,2.86H72.09A2.86,2.86,0,0,1,69.23,57V31.18a2.86,2.86,0,0,1,2.86-2.86H84.58L63.28,7.55,42.15,28.32H54.68a2.86,2.86,0,0,1,2.86,2.86V57a2.86,2.86,0,0,1-2.86,2.86H28.37A2.86,2.86,0,0,1,25.51,57V46.68l-19,18.73,19,18.88V74.06a2.86,2.86,0,0,1,2.86-2.86H54.68a2.86,2.86,0,0,1,2.86,2.86V99.92a2.86,2.86,0,0,1-2.86,2.86Z"/></svg>