<svg id="图层_1" data-name="图层 1" xmlns="http://www.w3.org/2000/svg" viewBox="0 0 127.56 127.56"><path d="M60.23,127.26l-3.14-.33C26.76,123.74,2.69,99.65-.15,69.66l-.3-3.11H34.81l.44,2.3A29.14,29.14,0,0,0,58,91.54l2.25.48Zm-54.34-55c3.74,24.82,23.54,44.61,48.65,48.62V96.54A34.82,34.82,0,0,1,30.2,72.24ZM66.4,126.92V91.67l2.29-.45A29.1,29.1,0,0,0,91.38,68.49l.48-2.24h35.25l-.33,3.14c-3.2,30.32-27.28,54.4-57.27,57.24Zm5.68-30.65v24.32C96.9,116.85,116.69,97,120.7,71.93H96.39A34.78,34.78,0,0,1,72.08,96.27Zm54.69-36.19H91.51l-.44-2.3A28.18,28.18,0,0,0,68.7,35.41L66.4,35V-.3l3.11.3a63.38,63.38,0,0,1,57,57ZM96.12,54.39h24.31A58.11,58.11,0,0,0,72.08,6.05V30.36A33.79,33.79,0,0,1,96.12,54.39ZM34.81,60.08H-.45L-.15,57a63.38,63.38,0,0,1,57-57l3.12-.3V35l-2.31.45A28.18,28.18,0,0,0,35.25,57.78ZM5.89,54.39H30.2a33.79,33.79,0,0,1,24-24V6.05A58.11,58.11,0,0,0,5.89,54.39Z"/></svg>