<svg id="图层_1" data-name="图层 1" xmlns="http://www.w3.org/2000/svg" viewBox="0 0 127.56 127.56"><path d="M125,29,92.68,2.54A9.87,9.87,0,0,0,86.42.42H8.89C4,.42,0,3.66,0,7.66V120.73c0,4,4,7.24,8.85,7.25H118.74c4.89,0,8.85-3.25,8.85-7.25V34.11A6.59,6.59,0,0,0,125,29ZM92.16,10.31l23.34,19.1H93.93A1.63,1.63,0,0,1,92.16,28Zm28.35,110.42a1.64,1.64,0,0,1-1.77,1.45H8.89a1.64,1.64,0,0,1-1.77-1.45V7.66A1.63,1.63,0,0,1,8.89,6.22H85.07V28c0,4,4,7.24,8.86,7.25h26.58Z"/><path d="M87,49.35H79.23L68.43,63.6a69.85,69.85,0,0,0-4.25,6.11,78.11,78.11,0,0,0-4.32-6.59L50.12,49.35H41.66L60,75.06,39.21,103h8.53L61.21,84.33c.52-.74,1.37-2.08,2.57-4,.8,1.29,1.59,2.49,2.34,3.59L79.64,103h8.78L68.1,74.66Z"/></svg>