<svg id="图层_1" data-name="图层 1" xmlns="http://www.w3.org/2000/svg" viewBox="0 0 127.56 127.56"><path d="M111.34,128H15.67C6.88,128-.27,121.42-.27,113.3V15.18C-.27,7.07,6.88.46,15.67.46h95.67c8.79,0,16,6.61,16,14.72V113.3C127.29,121.42,120.13,128,111.34,128ZM15.67,6.27C11,6.27,6.36,10,6.36,15.18V113.3c0,3.7,4.64,7.91,9.31,7.91h95.67c3.66,0,9.32-4.21,9.32-7.91V15.18c0-5.18-5.66-8.91-9.32-8.91Z"/><path d="M78.67,67H24.51c-2.71,0-4.9-1.69-4.9-3.77s2.19-3.76,4.9-3.76H78.67c2.71,0,4.9,1.69,4.9,3.76S81.38,67,78.67,67Z"/><path d="M93.06,98.51H24.49c-2.71,0-4.9-1.68-4.9-3.75S21.78,91,24.49,91H93.06C95.77,91,98,92.68,98,94.76S95.77,98.51,93.06,98.51Z"/><path d="M19.6,31.9a6.7,6.7,0,1,0,6.7-6.7A6.7,6.7,0,0,0,19.6,31.9Z"/><path d="M48.55,31.9a6.7,6.7,0,1,0,6.7-6.7A6.7,6.7,0,0,0,48.55,31.9Z"/><path d="M77.6,31.9a6.7,6.7,0,1,0,6.7-6.7A6.7,6.7,0,0,0,77.6,31.9Z"/></svg>