<svg id="图层_1" data-name="图层 1" xmlns="http://www.w3.org/2000/svg" viewBox="0 0 127.56 127.56"><path d="M125,4.7a3.35,3.35,0,0,0-1.42-.31A6.14,6.14,0,0,0,120,5.81c-1.13.58-113,57.94-116.93,60.06A5.68,5.68,0,0,0-.22,71.19a4.13,4.13,0,0,0,3,3.63L40,86.8l.62.19,2.14-6.54L10.11,70.05,110.27,16.93C99.65,29.21,56.32,79.2,54.33,81.51a13.49,13.49,0,0,0-3.78,9.28l0,20h0v7.28a3.43,3.43,0,0,0,6.84,0s.07-25,0-26.82A7.15,7.15,0,0,1,58.8,87l59.75-69c-2.74,13.91-16.25,82.33-16.45,83.33-.11.53-.33.53-.43.53a.71.71,0,0,1-.27,0c-1-.31-34.48-10.66-35.91-11.1l-.6-.18-2.2,6.6.65.21c.33.1,33.21,10.34,36.48,11.3a6.75,6.75,0,0,0,2,.3,7.27,7.27,0,0,0,7-6.15c.26-1.42,3.46-17.6,7.17-36.34,5.1-25.77,10.88-55,11-55.9l.08-.44c.27-1.5.73-4-2.15-5.37Z"/></svg>