<svg id="图层_1" data-name="图层 1" xmlns="http://www.w3.org/2000/svg" viewBox="0 0 127.56 127.56"><path d="M121.53,29.16H63L56.58,18a3.2,3.2,0,0,0-2.76-1.59H6.73A6.39,6.39,0,0,0,.35,22.78V96.12a6.39,6.39,0,0,0,6.38,6.38h60l4.72,10.84a3.19,3.19,0,0,0,2.93,1.92h47.2a6.38,6.38,0,0,0,6.38-6.38V35.53A6.38,6.38,0,0,0,121.53,29.16ZM6.73,22.78H52L94.32,96.12H6.73Zm80.8,48.83,5.14-14.26a14.82,14.82,0,0,0,.62-2.7h.13a18.39,18.39,0,0,0,.59,2.7l5.83,16H88.56ZM86.34,102.5l-10.43,5.22-2.27-5.22Zm35.19,6.38H87.84l13.43-6.71v0a3.16,3.16,0,0,0,1.45-4.23,1.24,1.24,0,0,0-.1-.2l-11.53-20h10.31l3.94,10.56h5.51L96.13,49.72H90.8l-6.32,16.6L66.7,35.53h54.83v73.35Z"/><path d="M43.47,56.83A4.82,4.82,0,0,0,41,54.07l-.41.3A4.7,4.7,0,0,1,41,56.62a26.32,26.32,0,0,0-8.38,1.12c.11-2.39.21-4.69.41-6.48,3.37-.36,7.25-.91,10.37-1.58,4.69-1,7.81-1.63,7.81-3.52s-4-2.76-6.59-3.06l-.2.15c-.47,2.34-7.91,3.57-10.82,3.93.2-1.23.36-2.29.55-3.16.26-1.13,1.23-1.94,1.23-2.76,0-1.64-2.55-3.17-6.38-3.17A4.52,4.52,0,0,0,25,40.44l.11.25c3.16-.25,3.67.62,3.67,2.6,0,.92,0,2.76-.1,4.44-1.23.05-2.66.15-3.78.15-3,0-5-.56-6.07-1.74l-.47.47c.72,2.6,3.11,5,7.31,5,.91,0,1.93,0,2.91-.1-.05,2.34-.05,5-.11,7.45C20.76,62.23,16,68.25,16,74.38c0,3.83,3.17,5.52,5.87,5.52a18,18,0,0,0,10.62-4A3.5,3.5,0,0,0,35,77.56c1.69,0,2.2-1.94,2.2-2.91a4.52,4.52,0,0,0-.82-2.15c4.75-5,7.51-10.87,7.51-13.32v-.41C49.09,60.1,51.7,64,51.7,69.08c-.05,6.28-5.42,11.85-16.85,13.48l.3,1c16.13-1.43,22.46-6.64,22.46-14.2,0-7-5.87-11.54-14.14-12.51ZM23.82,75c-2.4,0-3.11-.67-3.11-2.76,0-3.89,2.85-7.71,7.81-10.67a28.7,28.7,0,0,0,1.63,10.71C28,73.93,25.66,75,23.82,75Zm10.31-6.14a22.82,22.82,0,0,1-1.53-9.34,22.66,22.66,0,0,1,6.79-1.27c.36,0,.87,0,1.33,0a25.74,25.74,0,0,1-6.59,10.57Z"/></svg>