<svg id="图层_1" data-name="图层 1" xmlns="http://www.w3.org/2000/svg" viewBox="0 0 127.56 127.56"><path d="M20.6,52.9a6.7,6.7,0,1,0,6.7-6.7A6.7,6.7,0,0,0,20.6,52.9Z"/><path d="M93.6,52.9a6.7,6.7,0,1,0,6.7-6.7A6.7,6.7,0,0,0,93.6,52.9Z"/><path d="M57.1,52.9a6.7,6.7,0,1,0,6.7-6.7A6.7,6.7,0,0,0,57.1,52.9Z"/><path d="M49.06,126.68a3.17,3.17,0,0,1-1.94-.67,3.34,3.34,0,0,1-1.23-2.56l-.82-21.69a.16.16,0,0,0-.15-.16H21c-11.71,0-21.23-10.32-21.23-23V22.14c0-12.69,9.52-23,21.23-23h85.09c11.71,0,21.24,10.33,21.24,23V78.58c0,12.7-9.53,23-21.24,23H77a.16.16,0,0,0-.11.05L51.24,125.82A3.19,3.19,0,0,1,49.06,126.68ZM21,5.45c-8.22,0-14.9,7.49-14.9,16.69V78.58c0,9.2,6.68,16.69,14.9,16.69H48a3.33,3.33,0,0,1,3.33,3.2l.6,16a.9.9,0,0,0,1.52.62L73.52,96.13a3.18,3.18,0,0,1,2.17-.86h30.42c8.22,0,14.9-7.49,14.9-16.69V22.14c0-9.2-6.68-16.69-14.9-16.69Z"/></svg>