<svg id="图层_1" data-name="图层 1" xmlns="http://www.w3.org/2000/svg" viewBox="0 0 127.56 127.56"><path d="M62.72,107a4.68,4.68,0,1,0,4.72,4.68A4.7,4.7,0,0,0,62.72,107ZM94.82,0H30.62a12,12,0,0,0-12,12V115.64a12,12,0,0,0,12,12h64.2a12,12,0,0,0,12-12V12A12,12,0,0,0,94.82,0Zm6,111.61c0,6.35-5.59,10-10,10H34.64c-4.43,0-10-3.63-10-10V16c0-4.4,1.39-10,10-10H90.81c7.19,0,10,5.57,10,10ZM68.78,16H56.67a2.81,2.81,0,0,0-3,2.51,2.81,2.81,0,0,0,3,2.51H68.78a2.81,2.81,0,0,0,3-2.51A2.81,2.81,0,0,0,68.78,16Z"/><rect x="22" y="98" width="81" height="5"/></svg>