<svg id="图层_1" data-name="图层 1" xmlns="http://www.w3.org/2000/svg" viewBox="0 0 127.56 127.56"><defs><style>.cls-1{fill:none;stroke:#000;stroke-miterlimit:10;stroke-width:6px;}</style></defs><path class="cls-1" d="M113.85.63H14.18a8,8,0,0,0-8,8V38.5h6a8,8,0,1,1,0,15.94h-6V74.37h6a8,8,0,0,1,0,15.94h-6v29.91a8,8,0,0,0,8,8h99.67a8,8,0,0,0,8-8V8.6a8,8,0,0,0-8-8ZM66,111.89c-2.4,0-22.58-11-22.58-14s15.7-56.73,15.7-56.73l-12.87-16S44.31,21.6,50,21.6H82.14c5.67,0,2.83,3.56,2.83,3.56l-12.16,16s15.7,54.06,15.7,56.73S68.35,111.89,66,111.89Z"/></svg>