<svg id="图层_1" data-name="图层 1" xmlns="http://www.w3.org/2000/svg" viewBox="0 0 127.56 127.56"><path d="M95.09,126.57a13,13,0,0,1-5.65-1.3,15,15,0,0,1-4.51-3.35,16.12,16.12,0,0,1-3-4.86,16.18,16.18,0,0,1,0-11.88,16.14,16.14,0,0,1,3-4.85,13.85,13.85,0,0,1,3.42-2.73H51A14.21,14.21,0,0,1,54,100a14.58,14.58,0,0,1,3.06,5,17,17,0,0,1,0,11.75,14.59,14.59,0,0,1-3.07,5A15.47,15.47,0,0,1,49.44,125a13,13,0,0,1-5.65,1.3A13.21,13.21,0,0,1,38,125a15.81,15.81,0,0,1-4.45-3.3,14.68,14.68,0,0,1-3.06-5,17,17,0,0,1,0-11.75,14.59,14.59,0,0,1,3.07-5A14.81,14.81,0,0,1,37,97.31a9,9,0,0,1-3.24-1.48,12.76,12.76,0,0,1-3.58-4.08,23.47,23.47,0,0,1-2-4.88A45.38,45.38,0,0,1,27,82.27c-.1-.62-.32-1.91-.68-4s-.83-4.68-1.37-7.8L23.15,60.09q-1-5.75-2-11.58c-1.44-8.36-3.08-17.8-4.9-28.08H9.42a7.46,7.46,0,0,1-4.9-1.67A11.3,11.3,0,0,1,1.8,15.52,12.9,12.9,0,0,1,.37,11.6,19.55,19.55,0,0,1,0,8.1,9,9,0,0,1,2.47,1.66,8.8,8.8,0,0,1,9.05-1H21.52A10.81,10.81,0,0,1,26.85.18a9.66,9.66,0,0,1,3.3,2.88,10.75,10.75,0,0,1,1.66,3.46c.26.92.46,1.7.63,2.35a33.88,33.88,0,0,1,.57,3.4c.16,1.32.32,2.65.49,4,.13.83.26,1.71.39,2.63h82a14.15,14.15,0,0,1,6.71,1.35,9.16,9.16,0,0,1,3.9,3.67,9,9,0,0,1,1.08,4.66,14.13,14.13,0,0,1-.55,3.62c-.26.82-.77,2.49-1.55,5-.88,2.82-1.78,5.64-2.67,8.38-1,3-1.94,6-2.9,9s-1.65,5.26-2.14,7c-1.25,4.21-2.87,7.12-5,8.9a11.82,11.82,0,0,1-7.9,2.78H43.37l1,6.47h59.79c5.5,0,8.79,3.14,8.79,8.41a11.89,11.89,0,0,1-1.58,6.14c-.92,1.53-2.89,3.35-7.09,3.35H102a13.72,13.72,0,0,1,3.45,2.73,16.12,16.12,0,0,1,3,4.86,16.15,16.15,0,0,1,0,11.87,16.12,16.12,0,0,1-3,4.86,14.48,14.48,0,0,1-4.62,3.37,13.42,13.42,0,0,1-5.7,1.28Zm0-25a7.77,7.77,0,0,0-3.22.69,8.19,8.19,0,0,0-2.7,2,10.22,10.22,0,0,0-1.94,3.14,10.35,10.35,0,0,0,0,7.61,10.24,10.24,0,0,0,1.93,3.14,8.84,8.84,0,0,0,2.76,2.05,7.23,7.23,0,0,0,3.18.74h0a7.71,7.71,0,0,0,3.28-.74,8.82,8.82,0,0,0,2.83-2.06,10.44,10.44,0,0,0,2.64-6.94,10.23,10.23,0,0,0-.71-3.8,10.34,10.34,0,0,0-1.94-3.14,7.84,7.84,0,0,0-2.72-1.94,8.21,8.21,0,0,0-3.39-.71Zm-51.32-.28a7.69,7.69,0,0,0-3.31.69,8.92,8.92,0,0,0-2.76,2,8.7,8.7,0,0,0-1.88,3,11.06,11.06,0,0,0-.68,3.87,10.86,10.86,0,0,0,.68,3.88,8.69,8.69,0,0,0,1.87,3,10.11,10.11,0,0,0,2.84,2.11,7.49,7.49,0,0,0,6.43,0,9.84,9.84,0,0,0,2.88-2.1,8.79,8.79,0,0,0,1.87-3,11.35,11.35,0,0,0,0-7.74,8.69,8.69,0,0,0-1.87-3,8.81,8.81,0,0,0-2.8-2A7.78,7.78,0,0,0,43.76,101.25ZM9.05,4.73a3,3,0,0,0-2.43.86A3.38,3.38,0,0,0,5.73,8.1,13.36,13.36,0,0,0,6,10.54a7.3,7.3,0,0,0,.79,2.18,5.67,5.67,0,0,0,1.37,1.63,1.82,1.82,0,0,0,1.27.37h9.26a2.86,2.86,0,0,1,2.82,2.36c2,11.2,3.76,21.46,5.31,30.47q1,5.82,2,11.57l1.79,10.43q.8,4.67,1.35,7.77t.69,4a38.46,38.46,0,0,0,1,4,17,17,0,0,0,1.54,3.68,7.22,7.22,0,0,0,2,2.28,4.05,4.05,0,0,0,2.46.67h64.71c1.13,0,2-.22,2.18-.58a6,6,0,0,0,.77-3.2c0-1.86-.44-2.69-3.07-2.69H41.9A2.86,2.86,0,0,1,39.08,83L37.22,70.8a2.85,2.85,0,0,1,2.83-3.28h64.84a6.23,6.23,0,0,0,4.2-1.42c.83-.71,2.06-2.35,3.19-6.15.5-1.73,1.23-4.12,2.17-7.09s1.93-6,2.92-9c.88-2.71,1.77-5.5,2.64-8.29.78-2.51,1.29-4.18,1.54-5a9.32,9.32,0,0,0,.31-2.18,3.35,3.35,0,0,0-.4-1.71,3.49,3.49,0,0,0-1.54-1.35,8.87,8.87,0,0,0-4-.68H31.4a2.87,2.87,0,0,1-2.83-2.47c-.24-1.79-.49-3.49-.73-5.1-.18-1.44-.34-2.77-.51-4.07s-.3-2.14-.44-2.77S26.55,8.93,26.3,8a5.1,5.1,0,0,0-.8-1.66,4,4,0,0,0-1.4-1.19,5.43,5.43,0,0,0-2.58-.46Z"/></svg>