<svg id="图层_1" data-name="图层 1" xmlns="http://www.w3.org/2000/svg" viewBox="0 0 127.56 127.56"><path d="M30.63,127.56a10.54,10.54,0,0,1-6.08-2,11.1,11.1,0,0,1-4.51-11l5-30.6a3.64,3.64,0,0,0-1-3.17L2.82,59.19A11.19,11.19,0,0,1,.22,47.73a10.76,10.76,0,0,1,8.59-7.34L38.2,35.92a3.21,3.21,0,0,0,2.39-1.86L53.73,6.22A10.66,10.66,0,0,1,63.4,0h0a10.65,10.65,0,0,1,9.66,6.22h0L86.2,34.06a3.23,3.23,0,0,0,2.4,1.86L118,40.39a10.77,10.77,0,0,1,8.59,7.35A11.22,11.22,0,0,1,124,59.19L102.71,80.87a3.7,3.7,0,0,0-1,3.17l5,30.61a11.11,11.11,0,0,1-4.52,11,10.45,10.45,0,0,1-11.14.64L64.82,111.8a2.91,2.91,0,0,0-2.83,0l-26.3,14.45A10.43,10.43,0,0,1,30.63,127.56ZM63.4,7.56a3.08,3.08,0,0,0-2.83,1.89L47.43,37.29a10.79,10.79,0,0,1-8.1,6.11L10,47.86a3.22,3.22,0,0,0-2.56,2.27,3.66,3.66,0,0,0,.83,3.76L29.48,75.57a11.26,11.26,0,0,1,3,9.7l-5,30.6a3.54,3.54,0,0,0,1.42,3.56,2.8,2.8,0,0,0,3.13.19l26.29-14.44a10.38,10.38,0,0,1,10.13,0l26.28,14.44a2.84,2.84,0,0,0,3.13-.19,3.52,3.52,0,0,0,1.42-3.56l-5-30.6a11.24,11.24,0,0,1,3-9.7l21.27-21.68a3.67,3.67,0,0,0,.82-3.76,3.2,3.2,0,0,0-2.55-2.27L87.47,43.4a10.78,10.78,0,0,1-8.1-6.1L66.23,9.45A3.08,3.08,0,0,0,63.4,7.56Z"/></svg>