<svg id="图层_1" data-name="图层 1" xmlns="http://www.w3.org/2000/svg" viewBox="0 0 127.56 127.56"><path d="M84.46,125.54a11.37,11.37,0,0,1-8.19-3.39l-1.22-1.33a16.05,16.05,0,0,0-22.12,0l-1.22,1.33A11.4,11.4,0,0,1,40.09,125a58.57,58.57,0,0,1-8-4.09,57.32,57.32,0,0,1-7.54-4.94,11.51,11.51,0,0,1-3.35-11.49l.5-1.7A16.35,16.35,0,0,0,20,90.83a15.93,15.93,0,0,0-9.32-7.44L8.91,83A11.33,11.33,0,0,1,.68,74.33a58.5,58.5,0,0,1-.48-9,56.35,56.35,0,0,1,.49-9A11.43,11.43,0,0,1,8.9,47.63l1.81-.41A16,16,0,0,0,20,39.8a16.33,16.33,0,0,0,1.75-11.86l-.53-1.78a11.44,11.44,0,0,1,3.34-11.44,57.11,57.11,0,0,1,7.53-5,60.88,60.88,0,0,1,8-4.1A11.39,11.39,0,0,1,51.73,8.48L53,9.84a15.93,15.93,0,0,0,11,4.38h.1A15.86,15.86,0,0,0,75,9.88l1.29-1.4A11.38,11.38,0,0,1,87.9,5.66a59.49,59.49,0,0,1,8,4.09,57.32,57.32,0,0,1,7.54,4.94,11.49,11.49,0,0,1,3.35,11.49L106.18,28a16.32,16.32,0,0,0,1.76,11.84,16.09,16.09,0,0,0,9.24,7.4l1.86.43a11.33,11.33,0,0,1,8.21,8.64h0a59.3,59.3,0,0,1,.51,9,57.28,57.28,0,0,1-.48,9A11.44,11.44,0,0,1,119.06,83l-1.75.41a16.31,16.31,0,0,0-11.07,19.26l.54,1.82a11.44,11.44,0,0,1-3.37,11.46,55,55,0,0,1-7.51,4.93,59.78,59.78,0,0,1-8,4.09A10.13,10.13,0,0,1,84.46,125.54ZM64,109.57A22.83,22.83,0,0,1,79.84,116l.15.15,1.29,1.41a4.67,4.67,0,0,0,4.27,1h0A59.59,59.59,0,0,0,92.49,115,54,54,0,0,0,99,110.74a4.75,4.75,0,0,0,1.24-4.3l-.62-2.11a23.11,23.11,0,0,1,15.83-27.49l.2-.06,1.86-.43a4.78,4.78,0,0,0,3-3.21h0a54.73,54.73,0,0,0,.38-7.82,57.38,57.38,0,0,0-.41-7.86,4.68,4.68,0,0,0-3-3.18l-2.22-.53A22.85,22.85,0,0,1,102,43.19a23.12,23.12,0,0,1-2.45-16.95l.08-.28.62-1.86A4.78,4.78,0,0,0,99,19.88h0a55.68,55.68,0,0,0-6.54-4.23A61.83,61.83,0,0,0,85.52,12a4.67,4.67,0,0,0-4.24,1.08l-1.5,1.62A22.61,22.61,0,0,1,64.08,21h-.14a22.66,22.66,0,0,1-15.77-6.35L48,14.53,46.71,13.1a4.66,4.66,0,0,0-4.27-1h0a59.15,59.15,0,0,0-6.93,3.59A56.44,56.44,0,0,0,29,19.91a4.79,4.79,0,0,0-1.23,4.28l.62,2.08a23.16,23.16,0,0,1-2.44,16.91A22.82,22.82,0,0,1,12.54,53.79l-.21.05-1.9.43a4.85,4.85,0,0,0-3,3.21h0A56.46,56.46,0,0,0,7,65.31a53.61,53.61,0,0,0,.38,7.84,4.58,4.58,0,0,0,3,3.18l2.08.49A22.7,22.7,0,0,1,25.9,87.47a23.16,23.16,0,0,1,2.43,16.92l0,.17-.54,1.83A4.79,4.79,0,0,0,29,110.73h0A56.92,56.92,0,0,0,35.53,115a57.61,57.61,0,0,0,6.93,3.6,4.64,4.64,0,0,0,4.26-1.08L48.14,116A22.86,22.86,0,0,1,64,109.57ZM64,93a27.56,27.56,0,1,1,3.41-.22v.21Zm-.52-6.82H64a20.4,20.4,0,1,0-.52,0Z"/></svg>