<svg id="图层_1" data-name="图层 1" xmlns="http://www.w3.org/2000/svg" viewBox="0 0 127.56 127.56"><path d="M115.07,127.88H13.42a13,13,0,0,1-13-13V13.35a13,13,0,0,1,13-13h38a4.17,4.17,0,0,1,4.1,4.1V32.76c0,2.26-.83,3.1-3.1,3.1s-3.1-.84-3.1-3.1V6.18H13.42c-2.64.05-6.76,3.2-6.76,5.84V115.85c0,2.64,4.12,6.79,6.76,6.84H115.07c2.64,0,6.75-4.2,6.75-6.84V33.42c0-2.26.84-4.1,3.1-4.1s3.1,1.84,3.1,4.1v81.43a13,13,0,0,1-13,13Z"/><path d="M124.92,37.51c-2.24,0-3-1.85-3.1-4.09V20.28c.05-2.63-4-4.79-6.67-4.84H52.6c-2.26,0-3.1-.83-3.1-3.09s.84-3.1,3.1-3.1h62.47a13,13,0,0,1,13,13V33.42C128,35.68,127.19,37.51,124.92,37.51Z"/><path d="M123.92,36.51H6.86a4.09,4.09,0,0,1-4.1-4.09c0-2.26,1.83-3.1,4.1-3.1H123.92c2.27,0,4.1.84,4.1,3.1A4.09,4.09,0,0,1,123.92,36.51Z"/><path d="M89.26,36.51c-2.26,0-3.1-.83-3.1-3.09V13.35c0-2.27.84-4.1,3.1-4.1s3.1,1.83,3.1,4.1V33.42C92.36,35.68,91.53,36.51,89.26,36.51Z"/></svg>