<svg id="图层_1" data-name="图层 1" xmlns="http://www.w3.org/2000/svg" viewBox="0 0 127.56 127.56"><path d="M115.49,127.91H97.27a6.08,6.08,0,0,1-6.08-6.07V109.69a6.09,6.09,0,0,1,6.08-6.07h12.15V73.25H66.9v30.37H73A6.08,6.08,0,0,1,79,109.69v12.15A6.07,6.07,0,0,1,73,127.91H54.74a6.07,6.07,0,0,1-6.07-6.07V109.69a6.08,6.08,0,0,1,6.07-6.07h6.09V73.25H18.3v30.37H30.45a6.08,6.08,0,0,1,6.07,6.07v12.15a6.07,6.07,0,0,1-6.07,6.07H12.23a6.07,6.07,0,0,1-6.08-6.07V109.69a6.08,6.08,0,0,1,6.08-6.07V67.18h48.6V42.88H42.6a6.08,6.08,0,0,1-6.07-6.08V6.43A6.08,6.08,0,0,1,42.6.35H85.12a6.07,6.07,0,0,1,6.07,6.08V36.8a6.07,6.07,0,0,1-6.07,6.07H66.9v24.3h48.6v36.45a6.07,6.07,0,0,1,6.07,6.07v12.15A6.08,6.08,0,0,1,115.49,127.91ZM12.23,109.69v12.15H30.45V109.69ZM85.12,36.8V6.43H42.6V36.8ZM54.74,109.69v12.15H73V109.69Zm60.75,0H97.27v12.15h18.22Z"/></svg>