<svg id="图层_1" data-name="图层 1" xmlns="http://www.w3.org/2000/svg" viewBox="0 0 127.56 127.56"><path d="M63.35,19.9A25.06,25.06,0,1,0,88.42,45,25.08,25.08,0,0,0,63.35,19.9Zm0,43.67A18.61,18.61,0,1,1,82,45,18.63,18.63,0,0,1,63.37,63.57Z"/><path d="M63.1-.14a63.78,63.78,0,1,0,63.82,63.75A63.85,63.85,0,0,0,63.1-.14Zm0,121.25a48,48,0,0,1-34.32-14.43c.19-.45.38-.9.59-1.34a38,38,0,0,1,67.72,1c.08.15.14.32.21.48A48,48,0,0,1,63.15,121.11ZM104,104c-.08-.19-.15-.39-.24-.57a45.4,45.4,0,0,0-80.9-1.15c-.25.53-.47,1.07-.71,1.61A57.47,57.47,0,1,1,104,104Z"/></svg>