<svg id="图层_1" data-name="图层 1" xmlns="http://www.w3.org/2000/svg" viewBox="0 0 127.56 127.56"><path d="M16.25,97.61a3.3,3.3,0,0,1-2.08-.75,3.26,3.26,0,0,1-1-3.47L16.76,82C5.88,73.29.15,62.38.15,50.29c0-23,20.67-41.66,46.09-41.66C68.72,8.63,88.67,23.38,92.65,43a3.23,3.23,0,1,1-6.34,1.29C82.92,27.63,65.7,15.11,46.24,15.11,24.4,15.11,6.62,30.89,6.62,50.29c0,10.76,5.33,20.15,15.83,27.88a3.22,3.22,0,0,1,1.17,3.58l-1.91,6.07,8-4.23a3.18,3.18,0,0,1,2.18-.31l2.5.53a53.48,53.48,0,0,0,11.85,1.67c1.15,0,2.37-.06,3.73-.17a3.24,3.24,0,1,1,.54,6.46c-1.55.12-2.94.19-4.27.19A59.15,59.15,0,0,1,33,90.14l-1.32-.28L17.76,97.23A3.22,3.22,0,0,1,16.25,97.61Z"/><path d="M112.68,119.07a3.23,3.23,0,0,1-1.62-.44l-10.6-6.12a49.32,49.32,0,0,1-12.4,2c-21.88,0-39.69-16.16-39.69-36s17.81-36,39.69-36c21.49,0,39.64,16.5,39.64,36,0,9.57-5.14,19.15-14.55,27.16l2.64,9.25a3.24,3.24,0,0,1-3.11,4.13ZM100.93,105.8a3.17,3.17,0,0,1,1.61.44l4.83,2.78-1-3.59a3.24,3.24,0,0,1,1.11-3.43c8.88-7,13.78-15.36,13.78-23.47C121.23,62.52,106,49,88.06,49,69.75,49,54.85,62.24,54.85,78.53s14.9,29.54,33.21,29.54c3.86,0,7.83-1,12-2.16A3.32,3.32,0,0,1,100.93,105.8Z"/><path d="M76.88,70.61a3.86,3.86,0,1,1-7.71.38,2.41,2.41,0,0,1,0-.38,3.86,3.86,0,0,1,7.71,0m26.74,0a3.86,3.86,0,0,1-7.72,0h0a3.86,3.86,0,0,1,7.72,0"/><path d="M35.19,40.07a4.83,4.83,0,1,1-4.82-4.81,4.82,4.82,0,0,1,4.82,4.81m31.74,0a4.82,4.82,0,1,1-4.82-4.81,4.81,4.81,0,0,1,4.82,4.81"/></svg>