<?xml version="1.0" standalone="no"?><!DOCTYPE svg PUBLIC "-//W3C//DTD SVG 1.1//EN" "http://www.w3.org/Graphics/SVG/1.1/DTD/svg11.dtd"><svg t="1640067657541" class="icon" viewBox="0 0 1024 1024" version="1.1" xmlns="http://www.w3.org/2000/svg" p-id="6123" xmlns:xlink="http://www.w3.org/1999/xlink" width="200" height="200"><defs><style type="text/css"></style></defs><path d="M845.913043 0a178.086957 178.086957 0 0 1 178.086957 178.086957v667.826086a178.086957 178.086957 0 0 1-178.086957 178.086957H178.086957a178.086957 178.086957 0 0 1-178.086957-178.086957V178.086957a178.086957 178.086957 0 0 1 178.086957-178.086957h667.826086z m0 66.782609H178.086957a111.304348 111.304348 0 0 0-111.304348 111.304348v667.826086a111.304348 111.304348 0 0 0 111.304348 111.304348h667.826086a111.304348 111.304348 0 0 0 111.304348-111.304348V178.086957a111.304348 111.304348 0 0 0-111.304348-111.304348z m-95.053913 406.706087v77.022608H273.14087v-77.022608h477.71826z" fill="#02A8FE" p-id="6124"></path></svg>